# MagicaVoxel @ Ephtracy

# material
mtllib bridge_broken_right.mtl
usemtl palette

# normals
vn -1 0 0
vn 1 0 0
vn 0 0 1
vn 0 0 -1
vn 0 -1 0
vn 0 1 0

# texcoords
vt 0.974609 0.5
vt 0.978516 0.5

# verts
v -20 0 20
v -20 0 16
v -20 0 -0
v -20 0 -4
v -20 11 20
v -20 11 16
v -20 11 -0
v -20 11 -4
v -18 6 26
v -18 6 20
v -18 6 16
v -18 6 -0
v -18 8 26
v -18 8 22
v -18 8 16
v -18 8 12
v -18 8 6
v -18 8 2
v -18 9 26
v -18 9 22
v -18 9 20
v -18 9 16
v -18 9 12
v -18 9 6
v -18 9 2
v -18 9 -0
v 15 6 16
v 15 6 15
v 15 8 16
v 15 8 15
v 15 9 16
v 15 9 15
v 17 6 15
v 17 6 14
v 17 8 15
v 17 8 14
v 17 9 15
v 17 9 14
v 20 0 20
v 20 0 16
v 20 0 -0
v 20 0 -4
v 20 6 20
v 20 6 16
v 20 6 14
v 20 6 13
v 20 6 -0
v 20 6 -4
v 20 8 14
v 20 8 13
v 20 9 20
v 20 9 17
v 20 9 16
v 20 9 14
v 20 9 13
v 20 9 -0
v 20 9 -3
v 20 9 -4
v 20 11 20
v 20 11 16
v 20 11 -0
v 20 11 -4
v -16 0 20
v -16 0 16
v -16 0 -0
v -16 0 -4
v -16 6 20
v -16 6 16
v -16 6 -0
v -16 6 -4
v -16 9 20
v -16 9 17
v -16 9 16
v -16 9 -0
v -16 9 -3
v -16 9 -4
v -16 11 20
v -16 11 16
v -16 11 -0
v -16 11 -4
v 5 6 13
v 5 6 9
v 5 8 13
v 5 8 12
v 5 8 11
v 5 8 9
v 5 9 13
v 5 9 12
v 5 9 11
v 5 9 9
v 6 6 14
v 6 6 13
v 6 6 9
v 6 6 7
v 6 8 14
v 6 8 13
v 6 8 9
v 6 8 7
v 6 9 14
v 6 9 13
v 6 9 9
v 6 9 7
v 7 6 7
v 7 6 6
v 7 8 6
v 7 9 7
v 7 9 6
v 8 6 15
v 8 6 14
v 8 8 15
v 8 8 14
v 8 9 15
v 8 9 14
v 9 6 6
v 9 6 5
v 9 8 6
v 9 8 5
v 9 9 6
v 9 9 5
v 10 6 16
v 10 6 15
v 10 6 5
v 10 6 4
v 10 8 16
v 10 8 15
v 10 8 5
v 10 8 4
v 10 9 16
v 10 9 15
v 10 9 5
v 10 9 4
v 12 6 4
v 12 6 3
v 12 8 4
v 12 8 3
v 12 9 4
v 12 9 3
v 14 6 3
v 14 6 2
v 14 8 3
v 14 8 2
v 14 9 3
v 14 9 2
v 22 6 26
v 22 6 20
v 22 6 16
v 22 6 13
v 22 6 2
v 22 6 -0
v 22 8 21
v 22 8 20
v 22 8 1
v 22 8 -0
v 22 9 26
v 22 9 21
v 22 9 20
v 22 9 16
v 22 9 13
v 22 9 2
v 22 9 1
v 22 9 -0
v 24 0 20
v 24 0 16
v 24 0 -0
v 24 0 -4
v 24 11 20
v 24 11 16
v 24 11 -0
v 24 11 -4
v -18 6 26
v -18 8 26
v -18 9 26
v -15 8 26
v -15 9 26
v -14 8 26
v -14 9 26
v -6 8 26
v -6 9 26
v -5 8 26
v -5 9 26
v 3 8 26
v 3 9 26
v 4 8 26
v 4 9 26
v 12 8 26
v 12 9 26
v 13 8 26
v 13 9 26
v 21 8 26
v 21 9 26
v 22 6 26
v 22 9 26
v -20 0 20
v -20 11 20
v -18 6 20
v -18 9 20
v -17 9 20
v -16 0 20
v -16 6 20
v -16 9 20
v -16 11 20
v 20 0 20
v 20 6 20
v 20 9 20
v 20 11 20
v 22 6 20
v 22 8 20
v 22 9 20
v 24 0 20
v 24 11 20
v 5 6 9
v 5 8 9
v 5 9 9
v 6 6 9
v 6 8 9
v 6 9 9
v 6 6 7
v 6 8 7
v 6 9 7
v 7 6 7
v 7 9 7
v 7 6 6
v 7 8 6
v 7 9 6
v 9 6 6
v 9 8 6
v 9 9 6
v 9 6 5
v 9 8 5
v 9 9 5
v 10 6 5
v 10 8 5
v 10 9 5
v 10 6 4
v 10 8 4
v 10 9 4
v 12 6 4
v 12 8 4
v 12 9 4
v 12 6 3
v 12 8 3
v 12 9 3
v 13 8 3
v 13 9 3
v 14 6 3
v 14 8 3
v 14 9 3
v 14 6 2
v 14 8 2
v 14 9 2
v 22 6 2
v 22 9 2
v -20 0 -0
v -20 11 -0
v -18 6 -0
v -18 9 -0
v -17 9 -0
v -16 0 -0
v -16 6 -0
v -16 9 -0
v -16 11 -0
v 20 0 -0
v 20 6 -0
v 20 9 -0
v 20 11 -0
v 22 6 -0
v 22 8 -0
v 22 9 -0
v 24 0 -0
v 24 11 -0
v -20 0 16
v -20 11 16
v -18 6 16
v -18 8 16
v -18 9 16
v -16 0 16
v -16 6 16
v -16 9 16
v -16 11 16
v 10 6 16
v 10 8 16
v 10 9 16
v 15 6 16
v 15 8 16
v 15 9 16
v 20 0 16
v 20 6 16
v 20 9 16
v 20 11 16
v 21 9 16
v 22 6 16
v 22 9 16
v 24 0 16
v 24 11 16
v 8 6 15
v 8 8 15
v 8 9 15
v 10 6 15
v 10 8 15
v 10 9 15
v 15 6 15
v 15 8 15
v 15 9 15
v 17 6 15
v 17 8 15
v 17 9 15
v 6 6 14
v 6 8 14
v 6 9 14
v 8 6 14
v 8 8 14
v 8 9 14
v 17 6 14
v 17 8 14
v 17 9 14
v 20 6 14
v 20 8 14
v 20 9 14
v 5 6 13
v 5 8 13
v 5 9 13
v 6 6 13
v 6 8 13
v 6 9 13
v 20 6 13
v 20 8 13
v 20 9 13
v 21 8 13
v 21 9 13
v 22 6 13
v 22 9 13
v -20 0 -4
v -20 11 -4
v -18 7 -4
v -18 9 -4
v -16 0 -4
v -16 6 -4
v -16 7 -4
v -16 9 -4
v -16 11 -4
v 20 0 -4
v 20 6 -4
v 20 7 -4
v 20 9 -4
v 20 11 -4
v 22 7 -4
v 22 9 -4
v 24 0 -4
v 24 11 -4
v -20 0 20
v -16 0 20
v 20 0 20
v 24 0 20
v -20 0 16
v -16 0 16
v 20 0 16
v 24 0 16
v -20 0 -0
v -16 0 -0
v 20 0 -0
v 24 0 -0
v -20 0 -4
v -16 0 -4
v 20 0 -4
v 24 0 -4
v -18 6 26
v 22 6 26
v -18 6 20
v -16 6 20
v 20 6 20
v 22 6 20
v -18 6 16
v -16 6 16
v 10 6 16
v 15 6 16
v 20 6 16
v 22 6 16
v 8 6 15
v 10 6 15
v 15 6 15
v 17 6 15
v 6 6 14
v 8 6 14
v 17 6 14
v 20 6 14
v 5 6 13
v 6 6 13
v 20 6 13
v 22 6 13
v 5 6 9
v 6 6 9
v 6 6 7
v 7 6 7
v 7 6 6
v 9 6 6
v 9 6 5
v 10 6 5
v 10 6 4
v 12 6 4
v 12 6 3
v 14 6 3
v 14 6 2
v 22 6 2
v -18 6 -0
v -16 6 -0
v 20 6 -0
v 22 6 -0
v -16 6 -4
v 20 6 -4
v -18 9 26
v -15 9 26
v -14 9 26
v -6 9 26
v -5 9 26
v 3 9 26
v 4 9 26
v 12 9 26
v 13 9 26
v 21 9 26
v 22 9 26
v -18 9 22
v -15 9 22
v -14 9 22
v -6 9 22
v -5 9 22
v 3 9 22
v 4 9 22
v 12 9 22
v 13 9 22
v 21 9 22
v -17 9 21
v -9 9 21
v -8 9 21
v 0 9 21
v 1 9 21
v 9 9 21
v 10 9 21
v 18 9 21
v 19 9 21
v 22 9 21
v -18 9 20
v -17 9 20
v -16 9 20
v 20 9 20
v 22 9 20
v -16 9 17
v -9 9 17
v -8 9 17
v 0 9 17
v 1 9 17
v 9 9 17
v 10 9 17
v 18 9 17
v 19 9 17
v 20 9 17
v -18 9 16
v -16 9 16
v -15 9 16
v -14 9 16
v -6 9 16
v -5 9 16
v 3 9 16
v 4 9 16
v 10 9 16
v 15 9 16
v 20 9 16
v 21 9 16
v 22 9 16
v 8 9 15
v 10 9 15
v 15 9 15
v 17 9 15
v 6 9 14
v 8 9 14
v 17 9 14
v 20 9 14
v 5 9 13
v 6 9 13
v 20 9 13
v 21 9 13
v 22 9 13
v -18 9 12
v -15 9 12
v -14 9 12
v -6 9 12
v -5 9 12
v 3 9 12
v 4 9 12
v 5 9 12
v -17 9 11
v -9 9 11
v -8 9 11
v 0 9 11
v 1 9 11
v 5 9 11
v 5 9 9
v 6 9 9
v -17 9 7
v -9 9 7
v -8 9 7
v 0 9 7
v 1 9 7
v 6 9 7
v 7 9 7
v -18 9 6
v -15 9 6
v -14 9 6
v -6 9 6
v -5 9 6
v 3 9 6
v 4 9 6
v 7 9 6
v 9 9 6
v 9 9 5
v 10 9 5
v 10 9 4
v 12 9 4
v 12 9 3
v 13 9 3
v 14 9 3
v -18 9 2
v -15 9 2
v -14 9 2
v -6 9 2
v -5 9 2
v 3 9 2
v 4 9 2
v 12 9 2
v 13 9 2
v 14 9 2
v 22 9 2
v -17 9 1
v -9 9 1
v -8 9 1
v 0 9 1
v 1 9 1
v 9 9 1
v 10 9 1
v 18 9 1
v 19 9 1
v 22 9 1
v -18 9 -0
v -17 9 -0
v -16 9 -0
v 20 9 -0
v 22 9 -0
v -16 9 -3
v -9 9 -3
v -8 9 -3
v 0 9 -3
v 1 9 -3
v 9 9 -3
v 10 9 -3
v 18 9 -3
v 19 9 -3
v 20 9 -3
v -16 9 -4
v 20 9 -4
v -20 11 20
v -16 11 20
v 20 11 20
v 24 11 20
v -20 11 16
v -16 11 16
v 20 11 16
v 24 11 16
v -20 11 -0
v -16 11 -0
v 20 11 -0
v 24 11 -0
v -20 11 -4
v -16 11 -4
v 20 11 -4
v 24 11 -4

# faces
f 5/1/1 2/1/1 1/1/1
f 6/1/1 2/1/1 5/1/1
f 7/1/1 4/1/1 3/1/1
f 8/1/1 4/1/1 7/1/1
f 13/2/1 10/2/1 9/2/1
f 14/2/1 10/2/1 13/2/1
f 15/2/1 12/2/1 11/2/1
f 16/2/1 12/2/1 15/2/1
f 17/2/1 12/2/1 16/2/1
f 18/2/1 12/2/1 17/2/1
f 19/1/1 14/1/1 13/1/1
f 20/2/1 10/2/1 14/2/1
f 20/1/1 14/1/1 19/1/1
f 21/2/1 10/2/1 20/2/1
f 22/1/1 16/1/1 15/1/1
f 23/2/1 17/2/1 16/2/1
f 23/1/1 16/1/1 22/1/1
f 24/1/1 18/1/1 17/1/1
f 24/2/1 17/2/1 23/2/1
f 25/2/1 12/2/1 18/2/1
f 25/1/1 18/1/1 24/1/1
f 26/2/1 12/2/1 25/2/1
f 29/2/1 28/2/1 27/2/1
f 30/2/1 28/2/1 29/2/1
f 31/1/1 30/1/1 29/1/1
f 32/1/1 30/1/1 31/1/1
f 35/2/1 34/2/1 33/2/1
f 36/2/1 34/2/1 35/2/1
f 37/1/1 36/1/1 35/1/1
f 38/1/1 36/1/1 37/1/1
f 43/1/1 40/1/1 39/1/1
f 44/1/1 40/1/1 43/1/1
f 47/1/1 42/1/1 41/1/1
f 48/1/1 42/1/1 47/1/1
f 49/2/1 46/2/1 45/2/1
f 50/2/1 46/2/1 49/2/1
f 54/1/1 50/1/1 49/1/1
f 55/1/1 50/1/1 54/1/1
f 59/1/1 53/1/1 52/1/1
f 59/1/1 52/1/1 51/1/1
f 60/1/1 53/1/1 59/1/1
f 61/1/1 58/1/1 57/1/1
f 61/1/1 57/1/1 56/1/1
f 62/1/1 58/1/1 61/1/1
f 63/1/2 64/1/2 67/1/2
f 67/1/2 64/1/2 68/1/2
f 65/1/2 66/1/2 69/1/2
f 69/1/2 66/1/2 70/1/2
f 71/1/2 72/1/2 77/1/2
f 72/1/2 73/1/2 77/1/2
f 77/1/2 73/1/2 78/1/2
f 75/1/2 76/1/2 79/1/2
f 74/1/2 75/1/2 79/1/2
f 79/1/2 76/1/2 80/1/2
f 81/2/2 82/2/2 83/2/2
f 83/2/2 82/2/2 84/2/2
f 84/2/2 82/2/2 85/2/2
f 85/2/2 82/2/2 86/2/2
f 83/1/2 84/1/2 87/1/2
f 84/2/2 85/2/2 88/2/2
f 87/1/2 84/1/2 88/1/2
f 85/1/2 86/1/2 89/1/2
f 88/2/2 85/2/2 89/2/2
f 89/1/2 86/1/2 90/1/2
f 91/2/2 92/2/2 95/2/2
f 95/2/2 92/2/2 96/2/2
f 93/2/2 94/2/2 97/2/2
f 97/2/2 94/2/2 98/2/2
f 95/1/2 96/1/2 99/1/2
f 99/1/2 96/1/2 100/1/2
f 97/1/2 98/1/2 101/1/2
f 101/1/2 98/1/2 102/1/2
f 103/2/2 104/2/2 105/2/2
f 103/2/2 105/2/2 106/2/2
f 106/2/2 105/2/2 107/2/2
f 108/2/2 109/2/2 110/2/2
f 110/2/2 109/2/2 111/2/2
f 110/1/2 111/1/2 112/1/2
f 112/1/2 111/1/2 113/1/2
f 114/2/2 115/2/2 116/2/2
f 116/2/2 115/2/2 117/2/2
f 116/1/2 117/1/2 118/1/2
f 118/1/2 117/1/2 119/1/2
f 120/2/2 121/2/2 124/2/2
f 124/2/2 121/2/2 125/2/2
f 122/2/2 123/2/2 126/2/2
f 126/2/2 123/2/2 127/2/2
f 124/1/2 125/1/2 128/1/2
f 128/1/2 125/1/2 129/1/2
f 126/1/2 127/1/2 130/1/2
f 130/1/2 127/1/2 131/1/2
f 132/2/2 133/2/2 134/2/2
f 134/2/2 133/2/2 135/2/2
f 134/1/2 135/1/2 136/1/2
f 136/1/2 135/1/2 137/1/2
f 138/2/2 139/2/2 140/2/2
f 140/2/2 139/2/2 141/2/2
f 140/1/2 141/1/2 142/1/2
f 142/1/2 141/1/2 143/1/2
f 144/2/2 145/2/2 150/2/2
f 150/2/2 145/2/2 151/2/2
f 148/2/2 149/2/2 152/2/2
f 152/2/2 149/2/2 153/2/2
f 144/2/2 150/2/2 154/2/2
f 150/1/2 151/1/2 155/1/2
f 154/2/2 150/2/2 155/2/2
f 155/1/2 151/1/2 156/1/2
f 146/2/2 147/2/2 157/2/2
f 157/2/2 147/2/2 158/2/2
f 148/2/2 152/2/2 159/2/2
f 152/1/2 153/1/2 160/1/2
f 159/2/2 152/2/2 160/2/2
f 160/1/2 153/1/2 161/1/2
f 162/1/2 163/1/2 166/1/2
f 166/1/2 163/1/2 167/1/2
f 164/1/2 165/1/2 168/1/2
f 168/1/2 165/1/2 169/1/2
f 173/2/3 171/2/3 170/2/3
f 173/1/3 172/1/3 171/1/3
f 174/1/3 172/1/3 173/1/3
f 175/2/3 173/2/3 170/2/3
f 175/2/3 174/2/3 173/2/3
f 176/2/3 174/2/3 175/2/3
f 177/2/3 175/2/3 170/2/3
f 177/1/3 176/1/3 175/1/3
f 178/1/3 176/1/3 177/1/3
f 179/2/3 177/2/3 170/2/3
f 179/2/3 178/2/3 177/2/3
f 180/2/3 178/2/3 179/2/3
f 181/2/3 179/2/3 170/2/3
f 181/1/3 180/1/3 179/1/3
f 182/1/3 180/1/3 181/1/3
f 183/2/3 181/2/3 170/2/3
f 183/2/3 182/2/3 181/2/3
f 184/2/3 182/2/3 183/2/3
f 185/2/3 183/2/3 170/2/3
f 185/1/3 184/1/3 183/1/3
f 186/1/3 184/1/3 185/1/3
f 187/2/3 185/2/3 170/2/3
f 187/2/3 186/2/3 185/2/3
f 188/2/3 186/2/3 187/2/3
f 189/2/3 187/2/3 170/2/3
f 189/1/3 188/1/3 187/1/3
f 190/1/3 188/1/3 189/1/3
f 191/2/3 189/2/3 170/2/3
f 191/2/3 190/2/3 189/2/3
f 192/2/3 190/2/3 191/2/3
f 195/1/3 194/1/3 193/1/3
f 196/1/3 194/1/3 195/1/3
f 197/1/3 194/1/3 196/1/3
f 198/1/3 195/1/3 193/1/3
f 199/1/3 195/1/3 198/1/3
f 200/1/3 194/1/3 197/1/3
f 201/1/3 194/1/3 200/1/3
f 206/1/3 203/1/3 202/1/3
f 208/1/3 205/1/3 204/1/3
f 209/1/3 207/1/3 206/1/3
f 209/1/3 208/1/3 207/1/3
f 209/1/3 206/1/3 202/1/3
f 210/1/3 205/1/3 208/1/3
f 210/1/3 208/1/3 209/1/3
f 214/2/3 212/2/3 211/2/3
f 215/1/3 213/1/3 212/1/3
f 215/2/3 212/2/3 214/2/3
f 216/1/3 213/1/3 215/1/3
f 220/2/3 218/2/3 217/2/3
f 220/2/3 219/2/3 218/2/3
f 221/2/3 219/2/3 220/2/3
f 225/2/3 223/2/3 222/2/3
f 226/1/3 224/1/3 223/1/3
f 226/2/3 223/2/3 225/2/3
f 227/1/3 224/1/3 226/1/3
f 231/2/3 229/2/3 228/2/3
f 232/1/3 230/1/3 229/1/3
f 232/2/3 229/2/3 231/2/3
f 233/1/3 230/1/3 232/1/3
f 237/2/3 235/2/3 234/2/3
f 238/1/3 236/1/3 235/1/3
f 238/2/3 235/2/3 237/2/3
f 239/1/3 236/1/3 238/1/3
f 243/2/3 241/2/3 240/2/3
f 243/2/3 242/2/3 241/2/3
f 244/2/3 242/2/3 243/2/3
f 245/2/3 243/2/3 240/2/3
f 246/1/3 244/1/3 243/1/3
f 246/2/3 243/2/3 245/2/3
f 247/1/3 244/1/3 246/1/3
f 251/2/3 249/2/3 248/2/3
f 251/2/3 250/2/3 249/2/3
f 252/2/3 250/2/3 251/2/3
f 255/1/3 254/1/3 253/1/3
f 256/1/3 254/1/3 255/1/3
f 257/1/3 254/1/3 256/1/3
f 258/1/3 255/1/3 253/1/3
f 259/1/3 255/1/3 258/1/3
f 260/1/3 254/1/3 257/1/3
f 261/1/3 254/1/3 260/1/3
f 266/1/3 263/1/3 262/1/3
f 268/1/3 265/1/3 264/1/3
f 269/1/3 267/1/3 266/1/3
f 269/1/3 268/1/3 267/1/3
f 269/1/3 266/1/3 262/1/3
f 270/1/3 265/1/3 268/1/3
f 270/1/3 268/1/3 269/1/3
f 271/1/4 272/1/4 273/1/4
f 273/1/4 272/1/4 274/1/4
f 274/1/4 272/1/4 275/1/4
f 271/1/4 273/1/4 276/1/4
f 276/1/4 273/1/4 277/1/4
f 275/1/4 272/1/4 278/1/4
f 278/1/4 272/1/4 279/1/4
f 280/2/4 281/2/4 283/2/4
f 281/2/4 282/2/4 283/2/4
f 283/2/4 282/2/4 284/2/4
f 284/2/4 282/2/4 285/2/4
f 288/1/4 289/1/4 290/1/4
f 286/1/4 287/1/4 291/1/4
f 290/1/4 289/1/4 292/1/4
f 286/1/4 291/1/4 293/1/4
f 291/1/4 292/1/4 293/1/4
f 292/1/4 289/1/4 294/1/4
f 293/1/4 292/1/4 294/1/4
f 295/2/4 296/2/4 298/2/4
f 296/1/4 297/1/4 299/1/4
f 298/2/4 296/2/4 299/2/4
f 299/1/4 297/1/4 300/1/4
f 301/2/4 302/2/4 304/2/4
f 302/1/4 303/1/4 305/1/4
f 304/2/4 302/2/4 305/2/4
f 305/1/4 303/1/4 306/1/4
f 307/2/4 308/2/4 310/2/4
f 308/1/4 309/1/4 311/1/4
f 310/2/4 308/2/4 311/2/4
f 311/1/4 309/1/4 312/1/4
f 313/2/4 314/2/4 316/2/4
f 314/1/4 315/1/4 317/1/4
f 316/2/4 314/2/4 317/2/4
f 317/1/4 315/1/4 318/1/4
f 319/2/4 320/2/4 322/2/4
f 320/1/4 321/1/4 323/1/4
f 322/2/4 320/2/4 323/2/4
f 323/1/4 321/1/4 324/1/4
f 325/2/4 326/2/4 328/2/4
f 326/1/4 327/1/4 328/1/4
f 328/1/4 327/1/4 329/1/4
f 325/2/4 328/2/4 330/2/4
f 328/2/4 329/2/4 330/2/4
f 330/2/4 329/2/4 331/2/4
f 332/1/4 333/1/4 334/1/4
f 334/1/4 333/1/4 335/1/4
f 332/1/4 334/1/4 336/1/4
f 336/1/4 334/1/4 337/1/4
f 334/2/4 335/2/4 338/2/4
f 337/1/4 334/1/4 338/1/4
f 335/1/4 333/1/4 339/1/4
f 338/2/4 335/2/4 339/2/4
f 339/1/4 333/1/4 340/1/4
f 337/2/4 338/2/4 342/2/4
f 338/2/4 339/2/4 342/2/4
f 342/2/4 339/2/4 343/2/4
f 343/2/4 339/2/4 344/2/4
f 341/1/4 342/1/4 346/1/4
f 342/1/4 343/1/4 346/1/4
f 343/2/4 344/2/4 346/2/4
f 344/1/4 345/1/4 347/1/4
f 346/2/4 344/2/4 347/2/4
f 341/1/4 346/1/4 348/1/4
f 346/1/4 347/1/4 348/1/4
f 347/1/4 345/1/4 349/1/4
f 348/1/4 347/1/4 349/1/4
f 354/1/5 351/1/5 350/1/5
f 355/1/5 351/1/5 354/1/5
f 356/1/5 353/1/5 352/1/5
f 357/1/5 353/1/5 356/1/5
f 362/1/5 359/1/5 358/1/5
f 363/1/5 359/1/5 362/1/5
f 364/1/5 361/1/5 360/1/5
f 365/1/5 361/1/5 364/1/5
f 368/2/5 367/2/5 366/2/5
f 369/2/5 367/2/5 368/2/5
f 370/2/5 367/2/5 369/2/5
f 371/2/5 367/2/5 370/2/5
f 373/2/5 370/2/5 369/2/5
f 374/2/5 370/2/5 373/2/5
f 375/2/5 370/2/5 374/2/5
f 376/2/5 370/2/5 375/2/5
f 378/2/5 373/2/5 372/2/5
f 378/2/5 374/2/5 373/2/5
f 379/2/5 374/2/5 378/2/5
f 380/2/5 377/2/5 376/2/5
f 380/2/5 376/2/5 375/2/5
f 381/2/5 377/2/5 380/2/5
f 382/2/5 378/2/5 372/2/5
f 383/2/5 378/2/5 382/2/5
f 384/2/5 377/2/5 381/2/5
f 385/2/5 377/2/5 384/2/5
f 386/2/5 382/2/5 372/2/5
f 387/2/5 382/2/5 386/2/5
f 388/2/5 377/2/5 385/2/5
f 389/2/5 377/2/5 388/2/5
f 390/2/5 386/2/5 372/2/5
f 392/2/5 391/2/5 390/2/5
f 394/2/5 393/2/5 392/2/5
f 396/2/5 395/2/5 394/2/5
f 398/2/5 397/2/5 396/2/5
f 400/2/5 399/2/5 398/2/5
f 402/2/5 401/2/5 400/2/5
f 404/2/5 390/2/5 372/2/5
f 404/2/5 403/2/5 402/2/5
f 404/2/5 402/2/5 400/2/5
f 404/2/5 400/2/5 398/2/5
f 404/2/5 398/2/5 396/2/5
f 404/2/5 396/2/5 394/2/5
f 404/2/5 394/2/5 392/2/5
f 404/2/5 392/2/5 390/2/5
f 405/2/5 403/2/5 404/2/5
f 406/2/5 403/2/5 405/2/5
f 407/2/5 403/2/5 406/2/5
f 408/2/5 406/2/5 405/2/5
f 409/2/5 406/2/5 408/2/5
f 410/1/6 411/1/6 421/1/6
f 411/2/6 412/2/6 422/2/6
f 421/1/6 411/1/6 422/1/6
f 412/1/6 413/1/6 423/1/6
f 422/2/6 412/2/6 423/2/6
f 413/2/6 414/2/6 424/2/6
f 423/1/6 413/1/6 424/1/6
f 414/1/6 415/1/6 425/1/6
f 424/2/6 414/2/6 425/2/6
f 415/2/6 416/2/6 426/2/6
f 425/1/6 415/1/6 426/1/6
f 416/1/6 417/1/6 427/1/6
f 426/2/6 416/2/6 427/2/6
f 417/2/6 418/2/6 428/2/6
f 427/1/6 417/1/6 428/1/6
f 418/1/6 419/1/6 429/1/6
f 428/2/6 418/2/6 429/2/6
f 419/2/6 420/2/6 430/2/6
f 429/1/6 419/1/6 430/1/6
f 428/2/6 429/2/6 431/2/6
f 421/2/6 422/2/6 431/2/6
f 429/2/6 430/2/6 431/2/6
f 427/2/6 428/2/6 431/2/6
f 426/2/6 427/2/6 431/2/6
f 425/2/6 426/2/6 431/2/6
f 424/2/6 425/2/6 431/2/6
f 423/2/6 424/2/6 431/2/6
f 422/2/6 423/2/6 431/2/6
f 431/2/6 430/2/6 432/2/6
f 432/2/6 430/2/6 433/2/6
f 433/2/6 430/2/6 434/2/6
f 434/2/6 430/2/6 435/2/6
f 435/2/6 430/2/6 436/2/6
f 436/2/6 430/2/6 437/2/6
f 437/2/6 430/2/6 438/2/6
f 438/2/6 430/2/6 439/2/6
f 430/2/6 420/2/6 440/2/6
f 439/2/6 430/2/6 440/2/6
f 421/2/6 431/2/6 441/2/6
f 431/1/6 432/1/6 442/1/6
f 441/2/6 431/2/6 442/2/6
f 442/1/6 432/1/6 443/1/6
f 439/1/6 440/1/6 444/1/6
f 444/1/6 440/1/6 445/1/6
f 443/1/6 432/1/6 446/1/6
f 432/2/6 433/2/6 447/2/6
f 446/1/6 432/1/6 447/1/6
f 433/1/6 434/1/6 448/1/6
f 447/2/6 433/2/6 448/2/6
f 434/2/6 435/2/6 449/2/6
f 448/1/6 434/1/6 449/1/6
f 435/1/6 436/1/6 450/1/6
f 449/2/6 435/2/6 450/2/6
f 436/2/6 437/2/6 451/2/6
f 450/1/6 436/1/6 451/1/6
f 437/1/6 438/1/6 452/1/6
f 451/2/6 437/2/6 452/2/6
f 438/2/6 439/2/6 453/2/6
f 452/1/6 438/1/6 453/1/6
f 439/1/6 444/1/6 454/1/6
f 453/2/6 439/2/6 454/2/6
f 454/1/6 444/1/6 455/1/6
f 451/2/6 452/2/6 457/2/6
f 446/2/6 447/2/6 457/2/6
f 454/2/6 455/2/6 457/2/6
f 453/2/6 454/2/6 457/2/6
f 452/2/6 453/2/6 457/2/6
f 447/2/6 448/2/6 457/2/6
f 450/2/6 451/2/6 457/2/6
f 449/2/6 450/2/6 457/2/6
f 448/2/6 449/2/6 457/2/6
f 457/2/6 455/2/6 458/2/6
f 458/2/6 455/2/6 459/2/6
f 459/2/6 455/2/6 460/2/6
f 460/2/6 455/2/6 461/2/6
f 461/2/6 455/2/6 462/2/6
f 462/2/6 455/2/6 463/2/6
f 463/2/6 455/2/6 464/2/6
f 464/2/6 455/2/6 465/2/6
f 465/2/6 455/2/6 466/2/6
f 463/1/6 464/1/6 469/1/6
f 469/1/6 464/1/6 470/1/6
f 465/1/6 466/1/6 471/1/6
f 466/1/6 467/1/6 471/1/6
f 471/1/6 467/1/6 472/1/6
f 463/1/6 469/1/6 473/1/6
f 473/1/6 469/1/6 474/1/6
f 472/1/6 467/1/6 475/1/6
f 475/1/6 467/1/6 476/1/6
f 463/1/6 473/1/6 477/1/6
f 477/1/6 473/1/6 478/1/6
f 476/1/6 467/1/6 479/1/6
f 467/2/6 468/2/6 480/2/6
f 479/1/6 467/1/6 480/1/6
f 480/2/6 468/2/6 481/2/6
f 456/1/6 457/1/6 482/1/6
f 457/1/6 458/1/6 482/1/6
f 458/2/6 459/2/6 483/2/6
f 482/1/6 458/1/6 483/1/6
f 459/1/6 460/1/6 484/1/6
f 483/2/6 459/2/6 484/2/6
f 460/2/6 461/2/6 485/2/6
f 484/1/6 460/1/6 485/1/6
f 461/1/6 462/1/6 486/1/6
f 485/2/6 461/2/6 486/2/6
f 462/2/6 463/2/6 487/2/6
f 486/1/6 462/1/6 487/1/6
f 463/1/6 477/1/6 488/1/6
f 487/2/6 463/2/6 488/2/6
f 488/1/6 477/1/6 489/1/6
f 486/2/6 487/2/6 490/2/6
f 482/2/6 483/2/6 490/2/6
f 488/2/6 489/2/6 490/2/6
f 487/2/6 488/2/6 490/2/6
f 483/2/6 484/2/6 490/2/6
f 484/2/6 485/2/6 490/2/6
f 485/2/6 486/2/6 490/2/6
f 490/2/6 489/2/6 491/2/6
f 491/2/6 489/2/6 492/2/6
f 492/2/6 489/2/6 493/2/6
f 493/2/6 489/2/6 494/2/6
f 494/2/6 489/2/6 495/2/6
f 494/1/6 495/1/6 496/1/6
f 482/2/6 490/2/6 498/2/6
f 490/1/6 491/1/6 498/1/6
f 491/2/6 492/2/6 499/2/6
f 498/1/6 491/1/6 499/1/6
f 492/1/6 493/1/6 500/1/6
f 499/2/6 492/2/6 500/2/6
f 493/2/6 494/2/6 501/2/6
f 500/1/6 493/1/6 501/1/6
f 494/1/6 496/1/6 502/1/6
f 501/2/6 494/2/6 502/2/6
f 496/1/6 497/1/6 502/1/6
f 502/1/6 497/1/6 503/1/6
f 500/2/6 501/2/6 505/2/6
f 503/2/6 504/2/6 505/2/6
f 502/2/6 503/2/6 505/2/6
f 501/2/6 502/2/6 505/2/6
f 482/2/6 498/2/6 505/2/6
f 499/2/6 500/2/6 505/2/6
f 498/2/6 499/2/6 505/2/6
f 505/2/6 504/2/6 506/2/6
f 506/2/6 504/2/6 507/2/6
f 507/2/6 504/2/6 508/2/6
f 508/2/6 504/2/6 509/2/6
f 509/2/6 504/2/6 510/2/6
f 510/2/6 504/2/6 511/2/6
f 511/2/6 504/2/6 512/2/6
f 511/1/6 512/1/6 514/1/6
f 512/1/6 513/1/6 514/1/6
f 514/1/6 515/1/6 516/1/6
f 516/1/6 517/1/6 518/1/6
f 505/1/6 506/1/6 521/1/6
f 506/2/6 507/2/6 522/2/6
f 521/1/6 506/1/6 522/1/6
f 507/1/6 508/1/6 523/1/6
f 522/2/6 507/2/6 523/2/6
f 508/2/6 509/2/6 524/2/6
f 523/1/6 508/1/6 524/1/6
f 509/1/6 510/1/6 525/1/6
f 524/2/6 509/2/6 525/2/6
f 510/2/6 511/2/6 526/2/6
f 525/1/6 510/1/6 526/1/6
f 511/1/6 514/1/6 527/1/6
f 526/2/6 511/2/6 527/2/6
f 514/1/6 516/1/6 527/1/6
f 516/1/6 518/1/6 527/1/6
f 518/2/6 519/2/6 528/2/6
f 527/1/6 518/1/6 528/1/6
f 519/1/6 520/1/6 529/1/6
f 528/2/6 519/2/6 529/2/6
f 529/1/6 520/1/6 530/1/6
f 527/2/6 528/2/6 532/2/6
f 530/2/6 531/2/6 532/2/6
f 529/2/6 530/2/6 532/2/6
f 528/2/6 529/2/6 532/2/6
f 526/2/6 527/2/6 532/2/6
f 525/2/6 526/2/6 532/2/6
f 524/2/6 525/2/6 532/2/6
f 523/2/6 524/2/6 532/2/6
f 522/2/6 523/2/6 532/2/6
f 521/2/6 522/2/6 532/2/6
f 532/2/6 531/2/6 533/2/6
f 533/2/6 531/2/6 534/2/6
f 534/2/6 531/2/6 535/2/6
f 535/2/6 531/2/6 536/2/6
f 536/2/6 531/2/6 537/2/6
f 537/2/6 531/2/6 538/2/6
f 538/2/6 531/2/6 539/2/6
f 539/2/6 531/2/6 540/2/6
f 540/2/6 531/2/6 541/2/6
f 521/2/6 532/2/6 542/2/6
f 532/1/6 533/1/6 543/1/6
f 542/2/6 532/2/6 543/2/6
f 543/1/6 533/1/6 544/1/6
f 540/1/6 541/1/6 545/1/6
f 545/1/6 541/1/6 546/1/6
f 544/1/6 533/1/6 547/1/6
f 533/2/6 534/2/6 548/2/6
f 547/1/6 533/1/6 548/1/6
f 534/1/6 535/1/6 549/1/6
f 548/2/6 534/2/6 549/2/6
f 535/2/6 536/2/6 550/2/6
f 549/1/6 535/1/6 550/1/6
f 536/1/6 537/1/6 551/1/6
f 550/2/6 536/2/6 551/2/6
f 537/2/6 538/2/6 552/2/6
f 551/1/6 537/1/6 552/1/6
f 538/1/6 539/1/6 553/1/6
f 552/2/6 538/2/6 553/2/6
f 539/2/6 540/2/6 554/2/6
f 553/1/6 539/1/6 554/1/6
f 540/1/6 545/1/6 555/1/6
f 554/2/6 540/2/6 555/2/6
f 555/1/6 545/1/6 556/1/6
f 547/2/6 548/2/6 557/2/6
f 548/2/6 549/2/6 557/2/6
f 555/2/6 556/2/6 557/2/6
f 554/2/6 555/2/6 557/2/6
f 553/2/6 554/2/6 557/2/6
f 549/2/6 550/2/6 557/2/6
f 552/2/6 553/2/6 557/2/6
f 551/2/6 552/2/6 557/2/6
f 550/2/6 551/2/6 557/2/6
f 557/2/6 556/2/6 558/2/6
f 559/1/6 560/1/6 563/1/6
f 563/1/6 560/1/6 564/1/6
f 561/1/6 562/1/6 565/1/6
f 565/1/6 562/1/6 566/1/6
f 567/1/6 568/1/6 571/1/6
f 571/1/6 568/1/6 572/1/6
f 569/1/6 570/1/6 573/1/6
f 573/1/6 570/1/6 574/1/6
