# MagicaVoxel @ Ephtracy

# material
mtllib bridge_broken_left.mtl
usemtl palette

# normals
vn -1 0 0
vn 1 0 0
vn 0 0 1
vn 0 0 -1
vn 0 -1 0
vn 0 1 0

# texcoords
vt 0.974609 0.5
vt 0.978516 0.5

# verts
v -20 0 20
v -20 0 18
v -20 0 -0
v -20 0 -4
v -20 11 20
v -20 11 18
v -20 11 -0
v -20 11 -4
v -18 6 26
v -18 6 20
v -18 6 4
v -18 6 -0
v -18 8 26
v -18 8 22
v -18 8 4
v -18 8 2
v -18 9 26
v -18 9 22
v -18 9 20
v -18 9 4
v -18 9 2
v -18 9 -0
v -16 6 5
v -16 6 4
v -16 8 5
v -16 8 4
v -16 9 5
v -16 9 4
v -13 6 18
v -13 6 17
v -13 8 18
v -13 8 17
v -13 9 18
v -13 9 17
v -11 6 17
v -11 6 16
v -11 8 17
v -11 9 17
v -11 9 16
v -7 6 16
v -7 6 14
v -7 8 16
v -7 8 14
v -7 9 16
v -7 9 14
v -6 6 14
v -6 6 12
v -6 8 14
v -6 9 14
v -6 9 12
v -5 6 12
v -5 6 11
v -5 9 12
v -5 9 11
v -4 6 11
v -4 6 9
v -4 8 11
v -4 8 9
v -4 9 11
v -4 9 9
v -3 6 9
v -3 6 7
v -3 6 4
v -3 6 3
v -3 8 9
v -3 8 7
v -3 8 4
v -3 8 3
v -3 9 9
v -3 9 7
v -3 9 4
v -3 9 3
v -2 6 7
v -2 6 6
v -2 8 7
v -2 9 7
v -2 9 6
v -1 6 6
v -1 6 4
v -1 8 6
v -1 8 4
v -1 9 6
v -1 9 4
v 20 0 20
v 20 0 16
v 20 0 -0
v 20 0 -4
v 20 6 20
v 20 6 16
v 20 6 -0
v 20 6 -4
v 20 9 20
v 20 9 17
v 20 9 16
v 20 9 -0
v 20 9 -3
v 20 9 -4
v 20 11 20
v 20 11 16
v 20 11 -0
v 20 11 -4
v -16 0 20
v -16 0 18
v -16 0 -0
v -16 0 -4
v -16 6 20
v -16 6 18
v -16 6 -0
v -16 6 -4
v -16 9 20
v -16 9 18
v -16 9 -0
v -16 9 -3
v -16 9 -4
v -16 11 20
v -16 11 18
v -16 11 -0
v -16 11 -4
v -9 6 5
v -9 6 4
v -9 8 5
v -9 8 4
v -9 9 5
v -9 9 4
v -6 6 4
v -6 6 3
v -6 8 4
v -6 8 3
v -6 9 4
v -6 9 3
v 22 6 26
v 22 6 20
v 22 6 16
v 22 6 -0
v 22 8 21
v 22 8 20
v 22 8 11
v 22 8 7
v 22 8 1
v 22 8 -0
v 22 9 26
v 22 9 21
v 22 9 20
v 22 9 16
v 22 9 11
v 22 9 7
v 22 9 1
v 22 9 -0
v 24 0 20
v 24 0 16
v 24 0 -0
v 24 0 -4
v 24 11 20
v 24 11 16
v 24 11 -0
v 24 11 -4
v -18 6 26
v -18 8 26
v -18 9 26
v -15 8 26
v -15 9 26
v -14 8 26
v -14 9 26
v -6 8 26
v -6 9 26
v -5 8 26
v -5 9 26
v 3 8 26
v 3 9 26
v 4 8 26
v 4 9 26
v 12 8 26
v 12 9 26
v 13 8 26
v 13 9 26
v 21 8 26
v 21 9 26
v 22 6 26
v 22 9 26
v -20 0 20
v -20 11 20
v -18 6 20
v -18 9 20
v -17 9 20
v -16 0 20
v -16 6 20
v -16 9 20
v -16 11 20
v 20 0 20
v 20 6 20
v 20 9 20
v 20 11 20
v 22 6 20
v 22 8 20
v 22 9 20
v 24 0 20
v 24 11 20
v -16 6 5
v -16 8 5
v -16 9 5
v -15 8 5
v -15 9 5
v -14 8 5
v -14 9 5
v -9 6 5
v -9 8 5
v -9 9 5
v -18 6 4
v -18 8 4
v -18 9 4
v -16 6 4
v -16 8 4
v -16 9 4
v -9 6 4
v -9 8 4
v -9 9 4
v -6 6 4
v -6 8 4
v -6 9 4
v -3 6 4
v -3 8 4
v -3 9 4
v -1 6 4
v -1 8 4
v -1 9 4
v -6 6 3
v -6 8 3
v -6 9 3
v -5 8 3
v -5 9 3
v -3 6 3
v -3 8 3
v -3 9 3
v -20 0 -0
v -20 11 -0
v -18 6 -0
v -18 9 -0
v -17 9 -0
v -16 0 -0
v -16 6 -0
v -16 9 -0
v -16 11 -0
v 20 0 -0
v 20 6 -0
v 20 9 -0
v 20 11 -0
v 22 6 -0
v 22 8 -0
v 22 9 -0
v 24 0 -0
v 24 11 -0
v -20 0 18
v -20 11 18
v -18 7 18
v -18 9 18
v -17 8 18
v -17 9 18
v -16 0 18
v -16 6 18
v -16 7 18
v -16 9 18
v -16 11 18
v -13 6 18
v -13 8 18
v -13 9 18
v -13 6 17
v -13 8 17
v -13 9 17
v -11 6 17
v -11 8 17
v -11 9 17
v -11 6 16
v -11 9 16
v -7 6 16
v -7 8 16
v -7 9 16
v 20 0 16
v 20 6 16
v 20 9 16
v 20 11 16
v 21 9 16
v 22 6 16
v 22 9 16
v 24 0 16
v 24 11 16
v -7 6 14
v -7 8 14
v -7 9 14
v -6 6 14
v -6 8 14
v -6 9 14
v -6 6 12
v -6 9 12
v -5 6 12
v -5 9 12
v -5 6 11
v -5 9 11
v -4 6 11
v -4 8 11
v -4 9 11
v -4 6 9
v -4 8 9
v -4 9 9
v -3 6 9
v -3 8 9
v -3 9 9
v -3 6 7
v -3 8 7
v -3 9 7
v -2 6 7
v -2 8 7
v -2 9 7
v -2 6 6
v -2 9 6
v -1 6 6
v -1 8 6
v -1 9 6
v -20 0 -4
v -20 11 -4
v -18 7 -4
v -18 9 -4
v -16 0 -4
v -16 6 -4
v -16 7 -4
v -16 9 -4
v -16 11 -4
v 20 0 -4
v 20 6 -4
v 20 7 -4
v 20 9 -4
v 20 11 -4
v 22 7 -4
v 22 9 -4
v 24 0 -4
v 24 11 -4
v -20 0 20
v -16 0 20
v 20 0 20
v 24 0 20
v -20 0 18
v -16 0 18
v 20 0 16
v 24 0 16
v -20 0 -0
v -16 0 -0
v 20 0 -0
v 24 0 -0
v -20 0 -4
v -16 0 -4
v 20 0 -4
v 24 0 -4
v -18 6 26
v 22 6 26
v -18 6 20
v -16 6 20
v 20 6 20
v 22 6 20
v -16 6 18
v -13 6 18
v -13 6 17
v -11 6 17
v -11 6 16
v -7 6 16
v 20 6 16
v 22 6 16
v -7 6 14
v -6 6 14
v -6 6 12
v -5 6 12
v -5 6 11
v -4 6 11
v -4 6 9
v -3 6 9
v -3 6 7
v -2 6 7
v -2 6 6
v -1 6 6
v -16 6 5
v -9 6 5
v -18 6 4
v -16 6 4
v -9 6 4
v -6 6 4
v -3 6 4
v -1 6 4
v -6 6 3
v -3 6 3
v -18 6 -0
v -16 6 -0
v 20 6 -0
v 22 6 -0
v -16 6 -4
v 20 6 -4
v -18 9 26
v -15 9 26
v -14 9 26
v -6 9 26
v -5 9 26
v 3 9 26
v 4 9 26
v 12 9 26
v 13 9 26
v 21 9 26
v 22 9 26
v -18 9 22
v -15 9 22
v -14 9 22
v -6 9 22
v -5 9 22
v 3 9 22
v 4 9 22
v 12 9 22
v 13 9 22
v 21 9 22
v -17 9 21
v -9 9 21
v -8 9 21
v 0 9 21
v 1 9 21
v 9 9 21
v 10 9 21
v 18 9 21
v 19 9 21
v 22 9 21
v -18 9 20
v -17 9 20
v -16 9 20
v 20 9 20
v 22 9 20
v -16 9 18
v -13 9 18
v -13 9 17
v -11 9 17
v -9 9 17
v -8 9 17
v 0 9 17
v 1 9 17
v 9 9 17
v 10 9 17
v 18 9 17
v 19 9 17
v 20 9 17
v -11 9 16
v -7 9 16
v -6 9 16
v -5 9 16
v 3 9 16
v 4 9 16
v 12 9 16
v 13 9 16
v 20 9 16
v 21 9 16
v 22 9 16
v -7 9 14
v -6 9 14
v -6 9 12
v -5 9 12
v 3 9 12
v 4 9 12
v 12 9 12
v 13 9 12
v 21 9 12
v -5 9 11
v -4 9 11
v 0 9 11
v 1 9 11
v 9 9 11
v 10 9 11
v 18 9 11
v 19 9 11
v 22 9 11
v -4 9 9
v -3 9 9
v -3 9 7
v -2 9 7
v 0 9 7
v 1 9 7
v 9 9 7
v 10 9 7
v 18 9 7
v 19 9 7
v 22 9 7
v -2 9 6
v -1 9 6
v 3 9 6
v 4 9 6
v 12 9 6
v 13 9 6
v 21 9 6
v -16 9 5
v -15 9 5
v -14 9 5
v -9 9 5
v -18 9 4
v -16 9 4
v -9 9 4
v -6 9 4
v -3 9 4
v -1 9 4
v -6 9 3
v -5 9 3
v -3 9 3
v -18 9 2
v -15 9 2
v -14 9 2
v -6 9 2
v -5 9 2
v 3 9 2
v 4 9 2
v 12 9 2
v 13 9 2
v 21 9 2
v -17 9 1
v -9 9 1
v -8 9 1
v 0 9 1
v 1 9 1
v 9 9 1
v 10 9 1
v 18 9 1
v 19 9 1
v 22 9 1
v -18 9 -0
v -17 9 -0
v -16 9 -0
v 20 9 -0
v 22 9 -0
v -16 9 -3
v -9 9 -3
v -8 9 -3
v 0 9 -3
v 1 9 -3
v 9 9 -3
v 10 9 -3
v 18 9 -3
v 19 9 -3
v 20 9 -3
v -16 9 -4
v 20 9 -4
v -20 11 20
v -16 11 20
v 20 11 20
v 24 11 20
v -20 11 18
v -16 11 18
v 20 11 16
v 24 11 16
v -20 11 -0
v -16 11 -0
v 20 11 -0
v 24 11 -0
v -20 11 -4
v -16 11 -4
v 20 11 -4
v 24 11 -4

# faces
f 5/1/1 2/1/1 1/1/1
f 6/1/1 2/1/1 5/1/1
f 7/1/1 4/1/1 3/1/1
f 8/1/1 4/1/1 7/1/1
f 13/2/1 10/2/1 9/2/1
f 14/2/1 10/2/1 13/2/1
f 15/2/1 12/2/1 11/2/1
f 16/2/1 12/2/1 15/2/1
f 17/1/1 14/1/1 13/1/1
f 18/2/1 10/2/1 14/2/1
f 18/1/1 14/1/1 17/1/1
f 19/2/1 10/2/1 18/2/1
f 20/1/1 16/1/1 15/1/1
f 21/2/1 12/2/1 16/2/1
f 21/1/1 16/1/1 20/1/1
f 22/2/1 12/2/1 21/2/1
f 25/2/1 24/2/1 23/2/1
f 26/2/1 24/2/1 25/2/1
f 27/1/1 26/1/1 25/1/1
f 28/1/1 26/1/1 27/1/1
f 31/2/1 30/2/1 29/2/1
f 32/2/1 30/2/1 31/2/1
f 33/1/1 32/1/1 31/1/1
f 34/1/1 32/1/1 33/1/1
f 37/2/1 36/2/1 35/2/1
f 38/2/1 36/2/1 37/2/1
f 39/2/1 36/2/1 38/2/1
f 42/2/1 41/2/1 40/2/1
f 43/2/1 41/2/1 42/2/1
f 44/1/1 43/1/1 42/1/1
f 45/1/1 43/1/1 44/1/1
f 48/2/1 47/2/1 46/2/1
f 49/2/1 47/2/1 48/2/1
f 50/2/1 47/2/1 49/2/1
f 53/2/1 52/2/1 51/2/1
f 54/2/1 52/2/1 53/2/1
f 57/2/1 56/2/1 55/2/1
f 58/2/1 56/2/1 57/2/1
f 59/1/1 58/1/1 57/1/1
f 60/1/1 58/1/1 59/1/1
f 65/2/1 62/2/1 61/2/1
f 66/2/1 62/2/1 65/2/1
f 67/2/1 64/2/1 63/2/1
f 68/2/1 64/2/1 67/2/1
f 69/1/1 66/1/1 65/1/1
f 70/1/1 66/1/1 69/1/1
f 71/1/1 68/1/1 67/1/1
f 72/1/1 68/1/1 71/1/1
f 75/2/1 74/2/1 73/2/1
f 76/2/1 74/2/1 75/2/1
f 77/2/1 74/2/1 76/2/1
f 80/2/1 79/2/1 78/2/1
f 81/2/1 79/2/1 80/2/1
f 82/1/1 81/1/1 80/1/1
f 83/1/1 81/1/1 82/1/1
f 88/1/1 85/1/1 84/1/1
f 89/1/1 85/1/1 88/1/1
f 90/1/1 87/1/1 86/1/1
f 91/1/1 87/1/1 90/1/1
f 98/1/1 93/1/1 92/1/1
f 98/1/1 94/1/1 93/1/1
f 99/1/1 94/1/1 98/1/1
f 100/1/1 97/1/1 96/1/1
f 100/1/1 96/1/1 95/1/1
f 101/1/1 97/1/1 100/1/1
f 102/1/2 103/1/2 106/1/2
f 106/1/2 103/1/2 107/1/2
f 104/1/2 105/1/2 108/1/2
f 108/1/2 105/1/2 109/1/2
f 110/1/2 111/1/2 115/1/2
f 115/1/2 111/1/2 116/1/2
f 113/1/2 114/1/2 117/1/2
f 112/1/2 113/1/2 117/1/2
f 117/1/2 114/1/2 118/1/2
f 119/2/2 120/2/2 121/2/2
f 121/2/2 120/2/2 122/2/2
f 121/1/2 122/1/2 123/1/2
f 123/1/2 122/1/2 124/1/2
f 125/2/2 126/2/2 127/2/2
f 127/2/2 126/2/2 128/2/2
f 127/1/2 128/1/2 129/1/2
f 129/1/2 128/1/2 130/1/2
f 131/2/2 132/2/2 135/2/2
f 135/2/2 132/2/2 136/2/2
f 133/2/2 134/2/2 137/2/2
f 137/2/2 134/2/2 138/2/2
f 138/2/2 134/2/2 139/2/2
f 139/2/2 134/2/2 140/2/2
f 131/2/2 135/2/2 141/2/2
f 135/1/2 136/1/2 142/1/2
f 141/2/2 135/2/2 142/2/2
f 142/1/2 136/1/2 143/1/2
f 133/2/2 137/2/2 144/2/2
f 137/1/2 138/1/2 145/1/2
f 144/2/2 137/2/2 145/2/2
f 138/2/2 139/2/2 146/2/2
f 145/1/2 138/1/2 146/1/2
f 139/1/2 140/1/2 147/1/2
f 146/2/2 139/2/2 147/2/2
f 147/1/2 140/1/2 148/1/2
f 149/1/2 150/1/2 153/1/2
f 153/1/2 150/1/2 154/1/2
f 151/1/2 152/1/2 155/1/2
f 155/1/2 152/1/2 156/1/2
f 160/2/3 158/2/3 157/2/3
f 160/1/3 159/1/3 158/1/3
f 161/1/3 159/1/3 160/1/3
f 162/2/3 160/2/3 157/2/3
f 162/2/3 161/2/3 160/2/3
f 163/2/3 161/2/3 162/2/3
f 164/2/3 162/2/3 157/2/3
f 164/1/3 163/1/3 162/1/3
f 165/1/3 163/1/3 164/1/3
f 166/2/3 164/2/3 157/2/3
f 166/2/3 165/2/3 164/2/3
f 167/2/3 165/2/3 166/2/3
f 168/2/3 166/2/3 157/2/3
f 168/1/3 167/1/3 166/1/3
f 169/1/3 167/1/3 168/1/3
f 170/2/3 168/2/3 157/2/3
f 170/2/3 169/2/3 168/2/3
f 171/2/3 169/2/3 170/2/3
f 172/2/3 170/2/3 157/2/3
f 172/1/3 171/1/3 170/1/3
f 173/1/3 171/1/3 172/1/3
f 174/2/3 172/2/3 157/2/3
f 174/2/3 173/2/3 172/2/3
f 175/2/3 173/2/3 174/2/3
f 176/2/3 174/2/3 157/2/3
f 176/1/3 175/1/3 174/1/3
f 177/1/3 175/1/3 176/1/3
f 178/2/3 176/2/3 157/2/3
f 178/2/3 177/2/3 176/2/3
f 179/2/3 177/2/3 178/2/3
f 182/1/3 181/1/3 180/1/3
f 183/1/3 181/1/3 182/1/3
f 184/1/3 181/1/3 183/1/3
f 185/1/3 182/1/3 180/1/3
f 186/1/3 182/1/3 185/1/3
f 187/1/3 181/1/3 184/1/3
f 188/1/3 181/1/3 187/1/3
f 193/1/3 190/1/3 189/1/3
f 195/1/3 192/1/3 191/1/3
f 196/1/3 194/1/3 193/1/3
f 196/1/3 195/1/3 194/1/3
f 196/1/3 193/1/3 189/1/3
f 197/1/3 192/1/3 195/1/3
f 197/1/3 195/1/3 196/1/3
f 201/2/3 199/2/3 198/2/3
f 201/1/3 200/1/3 199/1/3
f 202/1/3 200/1/3 201/1/3
f 203/2/3 201/2/3 198/2/3
f 203/2/3 202/2/3 201/2/3
f 204/2/3 202/2/3 203/2/3
f 205/2/3 203/2/3 198/2/3
f 206/1/3 204/1/3 203/1/3
f 206/2/3 203/2/3 205/2/3
f 207/1/3 204/1/3 206/1/3
f 211/2/3 209/2/3 208/2/3
f 212/1/3 210/1/3 209/1/3
f 212/2/3 209/2/3 211/2/3
f 213/1/3 210/1/3 212/1/3
f 217/2/3 215/2/3 214/2/3
f 218/1/3 216/1/3 215/1/3
f 218/2/3 215/2/3 217/2/3
f 219/1/3 216/1/3 218/1/3
f 223/2/3 221/2/3 220/2/3
f 224/1/3 222/1/3 221/1/3
f 224/2/3 221/2/3 223/2/3
f 225/1/3 222/1/3 224/1/3
f 229/2/3 227/2/3 226/2/3
f 229/2/3 228/2/3 227/2/3
f 230/2/3 228/2/3 229/2/3
f 231/2/3 229/2/3 226/2/3
f 232/1/3 230/1/3 229/1/3
f 232/2/3 229/2/3 231/2/3
f 233/1/3 230/1/3 232/1/3
f 236/1/3 235/1/3 234/1/3
f 237/1/3 235/1/3 236/1/3
f 238/1/3 235/1/3 237/1/3
f 239/1/3 236/1/3 234/1/3
f 240/1/3 236/1/3 239/1/3
f 241/1/3 235/1/3 238/1/3
f 242/1/3 235/1/3 241/1/3
f 247/1/3 244/1/3 243/1/3
f 249/1/3 246/1/3 245/1/3
f 250/1/3 248/1/3 247/1/3
f 250/1/3 249/1/3 248/1/3
f 250/1/3 247/1/3 243/1/3
f 251/1/3 246/1/3 249/1/3
f 251/1/3 249/1/3 250/1/3
f 252/1/4 253/1/4 254/1/4
f 254/1/4 253/1/4 255/1/4
f 254/2/4 255/2/4 256/2/4
f 255/1/4 253/1/4 257/1/4
f 256/2/4 255/2/4 257/2/4
f 252/1/4 254/1/4 258/1/4
f 258/1/4 254/1/4 259/1/4
f 254/2/4 256/2/4 260/2/4
f 259/1/4 254/1/4 260/1/4
f 257/1/4 253/1/4 261/1/4
f 256/1/4 257/1/4 261/1/4
f 261/1/4 253/1/4 262/1/4
f 259/2/4 260/2/4 263/2/4
f 260/2/4 256/2/4 264/2/4
f 263/2/4 260/2/4 264/2/4
f 256/1/4 261/1/4 264/1/4
f 264/1/4 261/1/4 265/1/4
f 266/2/4 267/2/4 269/2/4
f 267/1/4 268/1/4 270/1/4
f 269/2/4 267/2/4 270/2/4
f 270/1/4 268/1/4 271/1/4
f 272/2/4 273/2/4 274/2/4
f 274/2/4 273/2/4 275/2/4
f 275/2/4 273/2/4 276/2/4
f 279/1/4 280/1/4 281/1/4
f 277/1/4 278/1/4 282/1/4
f 281/1/4 280/1/4 283/1/4
f 277/1/4 282/1/4 284/1/4
f 282/1/4 283/1/4 284/1/4
f 283/1/4 280/1/4 285/1/4
f 284/1/4 283/1/4 285/1/4
f 286/2/4 287/2/4 289/2/4
f 287/1/4 288/1/4 290/1/4
f 289/2/4 287/2/4 290/2/4
f 290/1/4 288/1/4 291/1/4
f 292/2/4 293/2/4 294/2/4
f 294/2/4 293/2/4 295/2/4
f 296/2/4 297/2/4 298/2/4
f 298/2/4 297/2/4 299/2/4
f 299/2/4 297/2/4 300/2/4
f 301/2/4 302/2/4 304/2/4
f 302/1/4 303/1/4 305/1/4
f 304/2/4 302/2/4 305/2/4
f 305/1/4 303/1/4 306/1/4
f 307/2/4 308/2/4 310/2/4
f 308/1/4 309/1/4 311/1/4
f 310/2/4 308/2/4 311/2/4
f 311/1/4 309/1/4 312/1/4
f 313/2/4 314/2/4 315/2/4
f 315/2/4 314/2/4 316/2/4
f 316/2/4 314/2/4 317/2/4
f 318/1/4 319/1/4 320/1/4
f 320/1/4 319/1/4 321/1/4
f 318/1/4 320/1/4 322/1/4
f 322/1/4 320/1/4 323/1/4
f 320/2/4 321/2/4 324/2/4
f 323/1/4 320/1/4 324/1/4
f 321/1/4 319/1/4 325/1/4
f 324/2/4 321/2/4 325/2/4
f 325/1/4 319/1/4 326/1/4
f 323/2/4 324/2/4 328/2/4
f 324/2/4 325/2/4 328/2/4
f 328/2/4 325/2/4 329/2/4
f 329/2/4 325/2/4 330/2/4
f 327/1/4 328/1/4 332/1/4
f 328/1/4 329/1/4 332/1/4
f 329/2/4 330/2/4 332/2/4
f 330/1/4 331/1/4 333/1/4
f 332/2/4 330/2/4 333/2/4
f 327/1/4 332/1/4 334/1/4
f 332/1/4 333/1/4 334/1/4
f 333/1/4 331/1/4 335/1/4
f 334/1/4 333/1/4 335/1/4
f 340/1/5 337/1/5 336/1/5
f 341/1/5 337/1/5 340/1/5
f 342/1/5 339/1/5 338/1/5
f 343/1/5 339/1/5 342/1/5
f 348/1/5 345/1/5 344/1/5
f 349/1/5 345/1/5 348/1/5
f 350/1/5 347/1/5 346/1/5
f 351/1/5 347/1/5 350/1/5
f 354/2/5 353/2/5 352/2/5
f 355/2/5 353/2/5 354/2/5
f 356/2/5 353/2/5 355/2/5
f 357/2/5 353/2/5 356/2/5
f 358/2/5 356/2/5 355/2/5
f 359/2/5 356/2/5 358/2/5
f 360/2/5 356/2/5 359/2/5
f 361/2/5 356/2/5 360/2/5
f 362/2/5 356/2/5 361/2/5
f 363/2/5 356/2/5 362/2/5
f 364/2/5 356/2/5 363/2/5
f 366/2/5 365/2/5 364/2/5
f 366/2/5 364/2/5 363/2/5
f 367/2/5 365/2/5 366/2/5
f 368/2/5 365/2/5 367/2/5
f 369/2/5 365/2/5 368/2/5
f 370/2/5 365/2/5 369/2/5
f 371/2/5 365/2/5 370/2/5
f 372/2/5 365/2/5 371/2/5
f 373/2/5 365/2/5 372/2/5
f 374/2/5 365/2/5 373/2/5
f 375/2/5 365/2/5 374/2/5
f 376/2/5 365/2/5 375/2/5
f 377/2/5 365/2/5 376/2/5
f 381/2/5 379/2/5 378/2/5
f 382/2/5 379/2/5 381/2/5
f 385/2/5 365/2/5 377/2/5
f 386/2/5 383/2/5 382/2/5
f 386/2/5 381/2/5 380/2/5
f 386/2/5 382/2/5 381/2/5
f 387/2/5 385/2/5 384/2/5
f 388/2/5 386/2/5 380/2/5
f 388/2/5 387/2/5 386/2/5
f 389/2/5 387/2/5 388/2/5
f 390/2/5 385/2/5 387/2/5
f 390/2/5 387/2/5 389/2/5
f 390/2/5 365/2/5 385/2/5
f 391/2/5 365/2/5 390/2/5
f 392/2/5 390/2/5 389/2/5
f 393/2/5 390/2/5 392/2/5
f 394/1/6 395/1/6 405/1/6
f 395/2/6 396/2/6 406/2/6
f 405/1/6 395/1/6 406/1/6
f 396/1/6 397/1/6 407/1/6
f 406/2/6 396/2/6 407/2/6
f 397/2/6 398/2/6 408/2/6
f 407/1/6 397/1/6 408/1/6
f 398/1/6 399/1/6 409/1/6
f 408/2/6 398/2/6 409/2/6
f 399/2/6 400/2/6 410/2/6
f 409/1/6 399/1/6 410/1/6
f 400/1/6 401/1/6 411/1/6
f 410/2/6 400/2/6 411/2/6
f 401/2/6 402/2/6 412/2/6
f 411/1/6 401/1/6 412/1/6
f 402/1/6 403/1/6 413/1/6
f 412/2/6 402/2/6 413/2/6
f 403/2/6 404/2/6 414/2/6
f 413/1/6 403/1/6 414/1/6
f 412/2/6 413/2/6 415/2/6
f 405/2/6 406/2/6 415/2/6
f 413/2/6 414/2/6 415/2/6
f 411/2/6 412/2/6 415/2/6
f 410/2/6 411/2/6 415/2/6
f 409/2/6 410/2/6 415/2/6
f 408/2/6 409/2/6 415/2/6
f 407/2/6 408/2/6 415/2/6
f 406/2/6 407/2/6 415/2/6
f 415/2/6 414/2/6 416/2/6
f 416/2/6 414/2/6 417/2/6
f 417/2/6 414/2/6 418/2/6
f 418/2/6 414/2/6 419/2/6
f 419/2/6 414/2/6 420/2/6
f 420/2/6 414/2/6 421/2/6
f 421/2/6 414/2/6 422/2/6
f 422/2/6 414/2/6 423/2/6
f 414/2/6 404/2/6 424/2/6
f 423/2/6 414/2/6 424/2/6
f 405/2/6 415/2/6 425/2/6
f 415/1/6 416/1/6 426/1/6
f 425/2/6 415/2/6 426/2/6
f 426/1/6 416/1/6 427/1/6
f 423/1/6 424/1/6 428/1/6
f 428/1/6 424/1/6 429/1/6
f 427/1/6 416/1/6 430/1/6
f 430/1/6 416/1/6 431/1/6
f 431/1/6 416/1/6 432/1/6
f 432/1/6 416/1/6 433/1/6
f 416/2/6 417/2/6 434/2/6
f 433/1/6 416/1/6 434/1/6
f 417/1/6 418/1/6 435/1/6
f 434/2/6 417/2/6 435/2/6
f 418/2/6 419/2/6 436/2/6
f 435/1/6 418/1/6 436/1/6
f 419/1/6 420/1/6 437/1/6
f 436/2/6 419/2/6 437/2/6
f 420/2/6 421/2/6 438/2/6
f 437/1/6 420/1/6 438/1/6
f 421/1/6 422/1/6 439/1/6
f 438/2/6 421/2/6 439/2/6
f 422/2/6 423/2/6 440/2/6
f 439/1/6 422/1/6 440/1/6
f 423/1/6 428/1/6 441/1/6
f 440/2/6 423/2/6 441/2/6
f 441/1/6 428/1/6 442/1/6
f 438/2/6 439/2/6 443/2/6
f 441/2/6 442/2/6 443/2/6
f 440/2/6 441/2/6 443/2/6
f 433/2/6 434/2/6 443/2/6
f 434/2/6 435/2/6 443/2/6
f 439/2/6 440/2/6 443/2/6
f 435/2/6 436/2/6 443/2/6
f 437/2/6 438/2/6 443/2/6
f 436/2/6 437/2/6 443/2/6
f 443/2/6 442/2/6 444/2/6
f 444/2/6 442/2/6 445/2/6
f 445/2/6 442/2/6 446/2/6
f 446/2/6 442/2/6 447/2/6
f 447/2/6 442/2/6 448/2/6
f 448/2/6 442/2/6 449/2/6
f 449/2/6 442/2/6 450/2/6
f 450/2/6 442/2/6 451/2/6
f 444/1/6 445/1/6 454/1/6
f 445/2/6 446/2/6 455/2/6
f 454/1/6 445/1/6 455/1/6
f 455/2/6 446/2/6 456/2/6
f 446/1/6 447/1/6 457/1/6
f 456/2/6 446/2/6 457/2/6
f 447/2/6 448/2/6 458/2/6
f 457/1/6 447/1/6 458/1/6
f 448/1/6 449/1/6 459/1/6
f 458/2/6 448/2/6 459/2/6
f 449/2/6 450/2/6 460/2/6
f 459/1/6 449/1/6 460/1/6
f 450/1/6 451/1/6 461/1/6
f 460/2/6 450/2/6 461/2/6
f 451/1/6 452/1/6 461/1/6
f 452/2/6 453/2/6 462/2/6
f 461/1/6 452/1/6 462/1/6
f 459/2/6 460/2/6 463/2/6
f 460/2/6 461/2/6 463/2/6
f 461/2/6 462/2/6 463/2/6
f 457/2/6 458/2/6 463/2/6
f 458/2/6 459/2/6 463/2/6
f 463/2/6 462/2/6 464/2/6
f 464/2/6 462/2/6 465/2/6
f 465/2/6 462/2/6 466/2/6
f 466/2/6 462/2/6 467/2/6
f 467/2/6 462/2/6 468/2/6
f 468/2/6 462/2/6 469/2/6
f 469/2/6 462/2/6 470/2/6
f 462/2/6 453/2/6 471/2/6
f 470/2/6 462/2/6 471/2/6
f 464/1/6 465/1/6 472/1/6
f 472/1/6 465/1/6 473/1/6
f 473/1/6 465/1/6 474/1/6
f 474/1/6 465/1/6 475/1/6
f 465/2/6 466/2/6 476/2/6
f 475/1/6 465/1/6 476/1/6
f 466/1/6 467/1/6 477/1/6
f 476/2/6 466/2/6 477/2/6
f 467/2/6 468/2/6 478/2/6
f 477/1/6 467/1/6 478/1/6
f 468/1/6 469/1/6 479/1/6
f 478/2/6 468/2/6 479/2/6
f 469/2/6 470/2/6 480/2/6
f 479/1/6 469/1/6 480/1/6
f 470/1/6 471/1/6 481/1/6
f 480/2/6 470/2/6 481/2/6
f 481/1/6 471/1/6 482/1/6
f 478/2/6 479/2/6 483/2/6
f 479/2/6 480/2/6 483/2/6
f 481/2/6 482/2/6 483/2/6
f 480/2/6 481/2/6 483/2/6
f 475/2/6 476/2/6 483/2/6
f 477/2/6 478/2/6 483/2/6
f 476/2/6 477/2/6 483/2/6
f 483/2/6 482/2/6 484/2/6
f 484/2/6 482/2/6 485/2/6
f 485/2/6 482/2/6 486/2/6
f 486/2/6 482/2/6 487/2/6
f 487/2/6 482/2/6 488/2/6
f 488/2/6 482/2/6 489/2/6
f 490/1/6 491/1/6 495/1/6
f 492/1/6 493/1/6 496/1/6
f 484/1/6 485/1/6 499/1/6
f 496/1/6 497/1/6 500/1/6
f 498/1/6 499/1/6 502/1/6
f 494/1/6 495/1/6 503/1/6
f 491/2/6 492/2/6 504/2/6
f 503/1/6 495/1/6 504/1/6
f 495/1/6 491/1/6 504/1/6
f 492/1/6 496/1/6 505/1/6
f 504/2/6 492/2/6 505/2/6
f 496/1/6 500/1/6 505/1/6
f 500/2/6 501/2/6 506/2/6
f 505/1/6 500/1/6 506/1/6
f 501/1/6 502/1/6 507/1/6
f 506/2/6 501/2/6 507/2/6
f 485/2/6 486/2/6 508/2/6
f 507/1/6 502/1/6 508/1/6
f 502/1/6 499/1/6 508/1/6
f 499/1/6 485/1/6 508/1/6
f 486/1/6 487/1/6 509/1/6
f 508/2/6 486/2/6 509/2/6
f 487/2/6 488/2/6 510/2/6
f 509/1/6 487/1/6 510/1/6
f 488/1/6 489/1/6 511/1/6
f 510/2/6 488/2/6 511/2/6
f 489/2/6 482/2/6 512/2/6
f 511/1/6 489/1/6 512/1/6
f 510/2/6 511/2/6 513/2/6
f 504/2/6 505/2/6 513/2/6
f 511/2/6 512/2/6 513/2/6
f 506/2/6 507/2/6 513/2/6
f 503/2/6 504/2/6 513/2/6
f 507/2/6 508/2/6 513/2/6
f 508/2/6 509/2/6 513/2/6
f 509/2/6 510/2/6 513/2/6
f 505/2/6 506/2/6 513/2/6
f 513/2/6 512/2/6 514/2/6
f 514/2/6 512/2/6 515/2/6
f 515/2/6 512/2/6 516/2/6
f 516/2/6 512/2/6 517/2/6
f 517/2/6 512/2/6 518/2/6
f 518/2/6 512/2/6 519/2/6
f 519/2/6 512/2/6 520/2/6
f 520/2/6 512/2/6 521/2/6
f 512/2/6 482/2/6 522/2/6
f 521/2/6 512/2/6 522/2/6
f 503/2/6 513/2/6 523/2/6
f 513/1/6 514/1/6 524/1/6
f 523/2/6 513/2/6 524/2/6
f 524/1/6 514/1/6 525/1/6
f 521/1/6 522/1/6 526/1/6
f 526/1/6 522/1/6 527/1/6
f 525/1/6 514/1/6 528/1/6
f 514/2/6 515/2/6 529/2/6
f 528/1/6 514/1/6 529/1/6
f 515/1/6 516/1/6 530/1/6
f 529/2/6 515/2/6 530/2/6
f 516/2/6 517/2/6 531/2/6
f 530/1/6 516/1/6 531/1/6
f 517/1/6 518/1/6 532/1/6
f 531/2/6 517/2/6 532/2/6
f 518/2/6 519/2/6 533/2/6
f 532/1/6 518/1/6 533/1/6
f 519/1/6 520/1/6 534/1/6
f 533/2/6 519/2/6 534/2/6
f 520/2/6 521/2/6 535/2/6
f 534/1/6 520/1/6 535/1/6
f 521/1/6 526/1/6 536/1/6
f 535/2/6 521/2/6 536/2/6
f 536/1/6 526/1/6 537/1/6
f 533/2/6 534/2/6 538/2/6
f 528/2/6 529/2/6 538/2/6
f 536/2/6 537/2/6 538/2/6
f 535/2/6 536/2/6 538/2/6
f 534/2/6 535/2/6 538/2/6
f 529/2/6 530/2/6 538/2/6
f 532/2/6 533/2/6 538/2/6
f 531/2/6 532/2/6 538/2/6
f 530/2/6 531/2/6 538/2/6
f 538/2/6 537/2/6 539/2/6
f 540/1/6 541/1/6 544/1/6
f 544/1/6 541/1/6 545/1/6
f 542/1/6 543/1/6 546/1/6
f 546/1/6 543/1/6 547/1/6
f 548/1/6 549/1/6 552/1/6
f 552/1/6 549/1/6 553/1/6
f 550/1/6 551/1/6 554/1/6
f 554/1/6 551/1/6 555/1/6
