# MagicaVoxel @ Ephtracy

# material
mtllib bridge.mtl
usemtl palette

# normals
vn -1 0 0
vn 1 0 0
vn 0 0 1
vn 0 0 -1
vn 0 -1 0
vn 0 1 0

# texcoords
vt 0.974609 0.5
vt 0.978516 0.5

# verts
v -20 0 20
v -20 0 16
v -20 0 -0
v -20 0 -4
v -20 11 20
v -20 11 16
v -20 11 -0
v -20 11 -4
v -18 6 26
v -18 6 20
v -18 6 16
v -18 6 -0
v -18 8 26
v -18 8 22
v -18 8 16
v -18 8 12
v -18 8 6
v -18 8 2
v -18 9 26
v -18 9 22
v -18 9 20
v -18 9 16
v -18 9 12
v -18 9 6
v -18 9 2
v -18 9 -0
v 20 0 20
v 20 0 16
v 20 0 -0
v 20 0 -4
v 20 6 20
v 20 6 16
v 20 6 -0
v 20 6 -4
v 20 9 20
v 20 9 17
v 20 9 16
v 20 9 -0
v 20 9 -3
v 20 9 -4
v 20 11 20
v 20 11 16
v 20 11 -0
v 20 11 -4
v -16 0 20
v -16 0 16
v -16 0 -0
v -16 0 -4
v -16 6 20
v -16 6 16
v -16 6 -0
v -16 6 -4
v -16 9 20
v -16 9 17
v -16 9 16
v -16 9 -0
v -16 9 -3
v -16 9 -4
v -16 11 20
v -16 11 16
v -16 11 -0
v -16 11 -4
v 22 6 26
v 22 6 20
v 22 6 16
v 22 6 -0
v 22 8 21
v 22 8 20
v 22 8 11
v 22 8 7
v 22 8 1
v 22 8 -0
v 22 9 26
v 22 9 21
v 22 9 20
v 22 9 16
v 22 9 11
v 22 9 7
v 22 9 1
v 22 9 -0
v 24 0 20
v 24 0 16
v 24 0 -0
v 24 0 -4
v 24 11 20
v 24 11 16
v 24 11 -0
v 24 11 -4
v -18 6 26
v -18 8 26
v -18 9 26
v -15 8 26
v -15 9 26
v -14 8 26
v -14 9 26
v -6 8 26
v -6 9 26
v -5 8 26
v -5 9 26
v 3 8 26
v 3 9 26
v 4 8 26
v 4 9 26
v 12 8 26
v 12 9 26
v 13 8 26
v 13 9 26
v 21 8 26
v 21 9 26
v 22 6 26
v 22 9 26
v -20 0 20
v -20 11 20
v -18 6 20
v -18 9 20
v -17 9 20
v -16 0 20
v -16 6 20
v -16 9 20
v -16 11 20
v 20 0 20
v 20 6 20
v 20 9 20
v 20 11 20
v 22 6 20
v 22 8 20
v 22 9 20
v 24 0 20
v 24 11 20
v -20 0 -0
v -20 11 -0
v -18 6 -0
v -18 9 -0
v -17 9 -0
v -16 0 -0
v -16 6 -0
v -16 9 -0
v -16 11 -0
v 20 0 -0
v 20 6 -0
v 20 9 -0
v 20 11 -0
v 22 6 -0
v 22 8 -0
v 22 9 -0
v 24 0 -0
v 24 11 -0
v -20 0 16
v -20 11 16
v -18 6 16
v -18 8 16
v -18 9 16
v -16 0 16
v -16 6 16
v -16 9 16
v -16 11 16
v 20 0 16
v 20 6 16
v 20 9 16
v 20 11 16
v 21 9 16
v 22 6 16
v 22 9 16
v 24 0 16
v 24 11 16
v -20 0 -4
v -20 11 -4
v -18 7 -4
v -18 9 -4
v -16 0 -4
v -16 6 -4
v -16 7 -4
v -16 9 -4
v -16 11 -4
v 20 0 -4
v 20 6 -4
v 20 7 -4
v 20 9 -4
v 20 11 -4
v 22 7 -4
v 22 9 -4
v 24 0 -4
v 24 11 -4
v -20 0 20
v -16 0 20
v 20 0 20
v 24 0 20
v -20 0 16
v -16 0 16
v 20 0 16
v 24 0 16
v -20 0 -0
v -16 0 -0
v 20 0 -0
v 24 0 -0
v -20 0 -4
v -16 0 -4
v 20 0 -4
v 24 0 -4
v -18 6 26
v 22 6 26
v -18 6 20
v -16 6 20
v 20 6 20
v 22 6 20
v -18 6 16
v -16 6 16
v 20 6 16
v 22 6 16
v -18 6 -0
v -16 6 -0
v 20 6 -0
v 22 6 -0
v -16 6 -4
v 20 6 -4
v -18 9 26
v -15 9 26
v -14 9 26
v -6 9 26
v -5 9 26
v 3 9 26
v 4 9 26
v 12 9 26
v 13 9 26
v 21 9 26
v 22 9 26
v -18 9 22
v -15 9 22
v -14 9 22
v -6 9 22
v -5 9 22
v 3 9 22
v 4 9 22
v 12 9 22
v 13 9 22
v 21 9 22
v -17 9 21
v -9 9 21
v -8 9 21
v 0 9 21
v 1 9 21
v 9 9 21
v 10 9 21
v 18 9 21
v 19 9 21
v 22 9 21
v -18 9 20
v -17 9 20
v -16 9 20
v 20 9 20
v 22 9 20
v -16 9 17
v -9 9 17
v -8 9 17
v 0 9 17
v 1 9 17
v 9 9 17
v 10 9 17
v 18 9 17
v 19 9 17
v 20 9 17
v -18 9 16
v -16 9 16
v -15 9 16
v -14 9 16
v -6 9 16
v -5 9 16
v 3 9 16
v 4 9 16
v 12 9 16
v 13 9 16
v 20 9 16
v 21 9 16
v 22 9 16
v -18 9 12
v -15 9 12
v -14 9 12
v -6 9 12
v -5 9 12
v 3 9 12
v 4 9 12
v 12 9 12
v 13 9 12
v 21 9 12
v -17 9 11
v -9 9 11
v -8 9 11
v 0 9 11
v 1 9 11
v 9 9 11
v 10 9 11
v 18 9 11
v 19 9 11
v 22 9 11
v -17 9 7
v -9 9 7
v -8 9 7
v 0 9 7
v 1 9 7
v 9 9 7
v 10 9 7
v 18 9 7
v 19 9 7
v 22 9 7
v -18 9 6
v -15 9 6
v -14 9 6
v -6 9 6
v -5 9 6
v 3 9 6
v 4 9 6
v 12 9 6
v 13 9 6
v 21 9 6
v -18 9 2
v -15 9 2
v -14 9 2
v -6 9 2
v -5 9 2
v 3 9 2
v 4 9 2
v 12 9 2
v 13 9 2
v 21 9 2
v -17 9 1
v -9 9 1
v -8 9 1
v 0 9 1
v 1 9 1
v 9 9 1
v 10 9 1
v 18 9 1
v 19 9 1
v 22 9 1
v -18 9 -0
v -17 9 -0
v -16 9 -0
v 20 9 -0
v 22 9 -0
v -16 9 -3
v -9 9 -3
v -8 9 -3
v 0 9 -3
v 1 9 -3
v 9 9 -3
v 10 9 -3
v 18 9 -3
v 19 9 -3
v 20 9 -3
v -16 9 -4
v 20 9 -4
v -20 11 20
v -16 11 20
v 20 11 20
v 24 11 20
v -20 11 16
v -16 11 16
v 20 11 16
v 24 11 16
v -20 11 -0
v -16 11 -0
v 20 11 -0
v 24 11 -0
v -20 11 -4
v -16 11 -4
v 20 11 -4
v 24 11 -4

# faces
f 5/1/1 2/1/1 1/1/1
f 6/1/1 2/1/1 5/1/1
f 7/1/1 4/1/1 3/1/1
f 8/1/1 4/1/1 7/1/1
f 13/2/1 10/2/1 9/2/1
f 14/2/1 10/2/1 13/2/1
f 15/2/1 12/2/1 11/2/1
f 16/2/1 12/2/1 15/2/1
f 17/2/1 12/2/1 16/2/1
f 18/2/1 12/2/1 17/2/1
f 19/1/1 14/1/1 13/1/1
f 20/2/1 10/2/1 14/2/1
f 20/1/1 14/1/1 19/1/1
f 21/2/1 10/2/1 20/2/1
f 22/1/1 16/1/1 15/1/1
f 23/2/1 17/2/1 16/2/1
f 23/1/1 16/1/1 22/1/1
f 24/1/1 18/1/1 17/1/1
f 24/2/1 17/2/1 23/2/1
f 25/2/1 12/2/1 18/2/1
f 25/1/1 18/1/1 24/1/1
f 26/2/1 12/2/1 25/2/1
f 31/1/1 28/1/1 27/1/1
f 32/1/1 28/1/1 31/1/1
f 33/1/1 30/1/1 29/1/1
f 34/1/1 30/1/1 33/1/1
f 41/1/1 36/1/1 35/1/1
f 41/1/1 37/1/1 36/1/1
f 42/1/1 37/1/1 41/1/1
f 43/1/1 40/1/1 39/1/1
f 43/1/1 39/1/1 38/1/1
f 44/1/1 40/1/1 43/1/1
f 45/1/2 46/1/2 49/1/2
f 49/1/2 46/1/2 50/1/2
f 47/1/2 48/1/2 51/1/2
f 51/1/2 48/1/2 52/1/2
f 53/1/2 54/1/2 59/1/2
f 54/1/2 55/1/2 59/1/2
f 59/1/2 55/1/2 60/1/2
f 57/1/2 58/1/2 61/1/2
f 56/1/2 57/1/2 61/1/2
f 61/1/2 58/1/2 62/1/2
f 63/2/2 64/2/2 67/2/2
f 67/2/2 64/2/2 68/2/2
f 65/2/2 66/2/2 69/2/2
f 69/2/2 66/2/2 70/2/2
f 70/2/2 66/2/2 71/2/2
f 71/2/2 66/2/2 72/2/2
f 63/2/2 67/2/2 73/2/2
f 67/1/2 68/1/2 74/1/2
f 73/2/2 67/2/2 74/2/2
f 74/1/2 68/1/2 75/1/2
f 65/2/2 69/2/2 76/2/2
f 69/1/2 70/1/2 77/1/2
f 76/2/2 69/2/2 77/2/2
f 70/2/2 71/2/2 78/2/2
f 77/1/2 70/1/2 78/1/2
f 71/1/2 72/1/2 79/1/2
f 78/2/2 71/2/2 79/2/2
f 79/1/2 72/1/2 80/1/2
f 81/1/2 82/1/2 85/1/2
f 85/1/2 82/1/2 86/1/2
f 83/1/2 84/1/2 87/1/2
f 87/1/2 84/1/2 88/1/2
f 92/2/3 90/2/3 89/2/3
f 92/1/3 91/1/3 90/1/3
f 93/1/3 91/1/3 92/1/3
f 94/2/3 92/2/3 89/2/3
f 94/2/3 93/2/3 92/2/3
f 95/2/3 93/2/3 94/2/3
f 96/2/3 94/2/3 89/2/3
f 96/1/3 95/1/3 94/1/3
f 97/1/3 95/1/3 96/1/3
f 98/2/3 96/2/3 89/2/3
f 98/2/3 97/2/3 96/2/3
f 99/2/3 97/2/3 98/2/3
f 100/2/3 98/2/3 89/2/3
f 100/1/3 99/1/3 98/1/3
f 101/1/3 99/1/3 100/1/3
f 102/2/3 100/2/3 89/2/3
f 102/2/3 101/2/3 100/2/3
f 103/2/3 101/2/3 102/2/3
f 104/2/3 102/2/3 89/2/3
f 104/1/3 103/1/3 102/1/3
f 105/1/3 103/1/3 104/1/3
f 106/2/3 104/2/3 89/2/3
f 106/2/3 105/2/3 104/2/3
f 107/2/3 105/2/3 106/2/3
f 108/2/3 106/2/3 89/2/3
f 108/1/3 107/1/3 106/1/3
f 109/1/3 107/1/3 108/1/3
f 110/2/3 108/2/3 89/2/3
f 110/2/3 109/2/3 108/2/3
f 111/2/3 109/2/3 110/2/3
f 114/1/3 113/1/3 112/1/3
f 115/1/3 113/1/3 114/1/3
f 116/1/3 113/1/3 115/1/3
f 117/1/3 114/1/3 112/1/3
f 118/1/3 114/1/3 117/1/3
f 119/1/3 113/1/3 116/1/3
f 120/1/3 113/1/3 119/1/3
f 125/1/3 122/1/3 121/1/3
f 127/1/3 124/1/3 123/1/3
f 128/1/3 126/1/3 125/1/3
f 128/1/3 127/1/3 126/1/3
f 128/1/3 125/1/3 121/1/3
f 129/1/3 124/1/3 127/1/3
f 129/1/3 127/1/3 128/1/3
f 132/1/3 131/1/3 130/1/3
f 133/1/3 131/1/3 132/1/3
f 134/1/3 131/1/3 133/1/3
f 135/1/3 132/1/3 130/1/3
f 136/1/3 132/1/3 135/1/3
f 137/1/3 131/1/3 134/1/3
f 138/1/3 131/1/3 137/1/3
f 143/1/3 140/1/3 139/1/3
f 145/1/3 142/1/3 141/1/3
f 146/1/3 144/1/3 143/1/3
f 146/1/3 145/1/3 144/1/3
f 146/1/3 143/1/3 139/1/3
f 147/1/3 142/1/3 145/1/3
f 147/1/3 145/1/3 146/1/3
f 148/1/4 149/1/4 150/1/4
f 150/1/4 149/1/4 151/1/4
f 151/1/4 149/1/4 152/1/4
f 148/1/4 150/1/4 153/1/4
f 153/1/4 150/1/4 154/1/4
f 152/1/4 149/1/4 155/1/4
f 155/1/4 149/1/4 156/1/4
f 159/1/4 160/1/4 161/1/4
f 157/1/4 158/1/4 162/1/4
f 161/1/4 160/1/4 163/1/4
f 157/1/4 162/1/4 164/1/4
f 162/1/4 163/1/4 164/1/4
f 163/1/4 160/1/4 165/1/4
f 164/1/4 163/1/4 165/1/4
f 166/1/4 167/1/4 168/1/4
f 168/1/4 167/1/4 169/1/4
f 166/1/4 168/1/4 170/1/4
f 170/1/4 168/1/4 171/1/4
f 168/2/4 169/2/4 172/2/4
f 171/1/4 168/1/4 172/1/4
f 169/1/4 167/1/4 173/1/4
f 172/2/4 169/2/4 173/2/4
f 173/1/4 167/1/4 174/1/4
f 171/2/4 172/2/4 176/2/4
f 172/2/4 173/2/4 176/2/4
f 176/2/4 173/2/4 177/2/4
f 177/2/4 173/2/4 178/2/4
f 175/1/4 176/1/4 180/1/4
f 176/1/4 177/1/4 180/1/4
f 177/2/4 178/2/4 180/2/4
f 178/1/4 179/1/4 181/1/4
f 180/2/4 178/2/4 181/2/4
f 175/1/4 180/1/4 182/1/4
f 180/1/4 181/1/4 182/1/4
f 181/1/4 179/1/4 183/1/4
f 182/1/4 181/1/4 183/1/4
f 188/1/5 185/1/5 184/1/5
f 189/1/5 185/1/5 188/1/5
f 190/1/5 187/1/5 186/1/5
f 191/1/5 187/1/5 190/1/5
f 196/1/5 193/1/5 192/1/5
f 197/1/5 193/1/5 196/1/5
f 198/1/5 195/1/5 194/1/5
f 199/1/5 195/1/5 198/1/5
f 202/2/5 201/2/5 200/2/5
f 203/2/5 201/2/5 202/2/5
f 204/2/5 201/2/5 203/2/5
f 205/2/5 201/2/5 204/2/5
f 207/2/5 204/2/5 203/2/5
f 208/2/5 204/2/5 207/2/5
f 210/2/5 207/2/5 206/2/5
f 210/2/5 209/2/5 208/2/5
f 210/2/5 208/2/5 207/2/5
f 211/2/5 209/2/5 210/2/5
f 212/2/5 209/2/5 211/2/5
f 213/2/5 209/2/5 212/2/5
f 214/2/5 212/2/5 211/2/5
f 215/2/5 212/2/5 214/2/5
f 216/1/6 217/1/6 227/1/6
f 217/2/6 218/2/6 228/2/6
f 227/1/6 217/1/6 228/1/6
f 218/1/6 219/1/6 229/1/6
f 228/2/6 218/2/6 229/2/6
f 219/2/6 220/2/6 230/2/6
f 229/1/6 219/1/6 230/1/6
f 220/1/6 221/1/6 231/1/6
f 230/2/6 220/2/6 231/2/6
f 221/2/6 222/2/6 232/2/6
f 231/1/6 221/1/6 232/1/6
f 222/1/6 223/1/6 233/1/6
f 232/2/6 222/2/6 233/2/6
f 223/2/6 224/2/6 234/2/6
f 233/1/6 223/1/6 234/1/6
f 224/1/6 225/1/6 235/1/6
f 234/2/6 224/2/6 235/2/6
f 225/2/6 226/2/6 236/2/6
f 235/1/6 225/1/6 236/1/6
f 234/2/6 235/2/6 237/2/6
f 227/2/6 228/2/6 237/2/6
f 235/2/6 236/2/6 237/2/6
f 233/2/6 234/2/6 237/2/6
f 232/2/6 233/2/6 237/2/6
f 231/2/6 232/2/6 237/2/6
f 230/2/6 231/2/6 237/2/6
f 229/2/6 230/2/6 237/2/6
f 228/2/6 229/2/6 237/2/6
f 237/2/6 236/2/6 238/2/6
f 238/2/6 236/2/6 239/2/6
f 239/2/6 236/2/6 240/2/6
f 240/2/6 236/2/6 241/2/6
f 241/2/6 236/2/6 242/2/6
f 242/2/6 236/2/6 243/2/6
f 243/2/6 236/2/6 244/2/6
f 244/2/6 236/2/6 245/2/6
f 236/2/6 226/2/6 246/2/6
f 245/2/6 236/2/6 246/2/6
f 227/2/6 237/2/6 247/2/6
f 237/1/6 238/1/6 248/1/6
f 247/2/6 237/2/6 248/2/6
f 248/1/6 238/1/6 249/1/6
f 245/1/6 246/1/6 250/1/6
f 250/1/6 246/1/6 251/1/6
f 249/1/6 238/1/6 252/1/6
f 238/2/6 239/2/6 253/2/6
f 252/1/6 238/1/6 253/1/6
f 239/1/6 240/1/6 254/1/6
f 253/2/6 239/2/6 254/2/6
f 240/2/6 241/2/6 255/2/6
f 254/1/6 240/1/6 255/1/6
f 241/1/6 242/1/6 256/1/6
f 255/2/6 241/2/6 256/2/6
f 242/2/6 243/2/6 257/2/6
f 256/1/6 242/1/6 257/1/6
f 243/1/6 244/1/6 258/1/6
f 257/2/6 243/2/6 258/2/6
f 244/2/6 245/2/6 259/2/6
f 258/1/6 244/1/6 259/1/6
f 245/1/6 250/1/6 260/1/6
f 259/2/6 245/2/6 260/2/6
f 260/1/6 250/1/6 261/1/6
f 257/2/6 258/2/6 263/2/6
f 252/2/6 253/2/6 263/2/6
f 260/2/6 261/2/6 263/2/6
f 259/2/6 260/2/6 263/2/6
f 258/2/6 259/2/6 263/2/6
f 253/2/6 254/2/6 263/2/6
f 256/2/6 257/2/6 263/2/6
f 255/2/6 256/2/6 263/2/6
f 254/2/6 255/2/6 263/2/6
f 263/2/6 261/2/6 264/2/6
f 264/2/6 261/2/6 265/2/6
f 265/2/6 261/2/6 266/2/6
f 266/2/6 261/2/6 267/2/6
f 267/2/6 261/2/6 268/2/6
f 268/2/6 261/2/6 269/2/6
f 269/2/6 261/2/6 270/2/6
f 270/2/6 261/2/6 271/2/6
f 271/2/6 261/2/6 272/2/6
f 262/1/6 263/1/6 275/1/6
f 263/1/6 264/1/6 275/1/6
f 264/2/6 265/2/6 276/2/6
f 275/1/6 264/1/6 276/1/6
f 265/1/6 266/1/6 277/1/6
f 276/2/6 265/2/6 277/2/6
f 266/2/6 267/2/6 278/2/6
f 277/1/6 266/1/6 278/1/6
f 267/1/6 268/1/6 279/1/6
f 278/2/6 267/2/6 279/2/6
f 268/2/6 269/2/6 280/2/6
f 279/1/6 268/1/6 280/1/6
f 269/1/6 270/1/6 281/1/6
f 280/2/6 269/2/6 281/2/6
f 270/2/6 271/2/6 282/2/6
f 281/1/6 270/1/6 282/1/6
f 271/1/6 272/1/6 283/1/6
f 282/2/6 271/2/6 283/2/6
f 272/1/6 273/1/6 283/1/6
f 273/2/6 274/2/6 284/2/6
f 283/1/6 273/1/6 284/1/6
f 281/2/6 282/2/6 285/2/6
f 282/2/6 283/2/6 285/2/6
f 283/2/6 284/2/6 285/2/6
f 279/2/6 280/2/6 285/2/6
f 278/2/6 279/2/6 285/2/6
f 277/2/6 278/2/6 285/2/6
f 276/2/6 277/2/6 285/2/6
f 275/2/6 276/2/6 285/2/6
f 280/2/6 281/2/6 285/2/6
f 285/2/6 284/2/6 286/2/6
f 286/2/6 284/2/6 287/2/6
f 287/2/6 284/2/6 288/2/6
f 288/2/6 284/2/6 289/2/6
f 289/2/6 284/2/6 290/2/6
f 290/2/6 284/2/6 291/2/6
f 291/2/6 284/2/6 292/2/6
f 292/2/6 284/2/6 293/2/6
f 284/2/6 274/2/6 294/2/6
f 293/2/6 284/2/6 294/2/6
f 275/2/6 285/2/6 295/2/6
f 285/1/6 286/1/6 295/1/6
f 286/2/6 287/2/6 296/2/6
f 295/1/6 286/1/6 296/1/6
f 287/1/6 288/1/6 297/1/6
f 296/2/6 287/2/6 297/2/6
f 288/2/6 289/2/6 298/2/6
f 297/1/6 288/1/6 298/1/6
f 289/1/6 290/1/6 299/1/6
f 298/2/6 289/2/6 299/2/6
f 290/2/6 291/2/6 300/2/6
f 299/1/6 290/1/6 300/1/6
f 291/1/6 292/1/6 301/1/6
f 300/2/6 291/2/6 301/2/6
f 292/2/6 293/2/6 302/2/6
f 301/1/6 292/1/6 302/1/6
f 293/1/6 294/1/6 303/1/6
f 302/2/6 293/2/6 303/2/6
f 303/1/6 294/1/6 304/1/6
f 300/2/6 301/2/6 305/2/6
f 301/2/6 302/2/6 305/2/6
f 303/2/6 304/2/6 305/2/6
f 302/2/6 303/2/6 305/2/6
f 299/2/6 300/2/6 305/2/6
f 298/2/6 299/2/6 305/2/6
f 297/2/6 298/2/6 305/2/6
f 296/2/6 297/2/6 305/2/6
f 295/2/6 296/2/6 305/2/6
f 275/2/6 295/2/6 305/2/6
f 305/2/6 304/2/6 306/2/6
f 306/2/6 304/2/6 307/2/6
f 307/2/6 304/2/6 308/2/6
f 308/2/6 304/2/6 309/2/6
f 309/2/6 304/2/6 310/2/6
f 310/2/6 304/2/6 311/2/6
f 311/2/6 304/2/6 312/2/6
f 312/2/6 304/2/6 313/2/6
f 313/2/6 304/2/6 314/2/6
f 305/1/6 306/1/6 315/1/6
f 306/2/6 307/2/6 316/2/6
f 315/1/6 306/1/6 316/1/6
f 307/1/6 308/1/6 317/1/6
f 316/2/6 307/2/6 317/2/6
f 308/2/6 309/2/6 318/2/6
f 317/1/6 308/1/6 318/1/6
f 309/1/6 310/1/6 319/1/6
f 318/2/6 309/2/6 319/2/6
f 310/2/6 311/2/6 320/2/6
f 319/1/6 310/1/6 320/1/6
f 311/1/6 312/1/6 321/1/6
f 320/2/6 311/2/6 321/2/6
f 312/2/6 313/2/6 322/2/6
f 321/1/6 312/1/6 322/1/6
f 313/1/6 314/1/6 323/1/6
f 322/2/6 313/2/6 323/2/6
f 314/2/6 304/2/6 324/2/6
f 323/1/6 314/1/6 324/1/6
f 322/2/6 323/2/6 325/2/6
f 315/2/6 316/2/6 325/2/6
f 323/2/6 324/2/6 325/2/6
f 321/2/6 322/2/6 325/2/6
f 320/2/6 321/2/6 325/2/6
f 319/2/6 320/2/6 325/2/6
f 318/2/6 319/2/6 325/2/6
f 317/2/6 318/2/6 325/2/6
f 316/2/6 317/2/6 325/2/6
f 325/2/6 324/2/6 326/2/6
f 326/2/6 324/2/6 327/2/6
f 327/2/6 324/2/6 328/2/6
f 328/2/6 324/2/6 329/2/6
f 329/2/6 324/2/6 330/2/6
f 330/2/6 324/2/6 331/2/6
f 331/2/6 324/2/6 332/2/6
f 332/2/6 324/2/6 333/2/6
f 324/2/6 304/2/6 334/2/6
f 333/2/6 324/2/6 334/2/6
f 315/2/6 325/2/6 335/2/6
f 325/1/6 326/1/6 336/1/6
f 335/2/6 325/2/6 336/2/6
f 336/1/6 326/1/6 337/1/6
f 333/1/6 334/1/6 338/1/6
f 338/1/6 334/1/6 339/1/6
f 337/1/6 326/1/6 340/1/6
f 326/2/6 327/2/6 341/2/6
f 340/1/6 326/1/6 341/1/6
f 327/1/6 328/1/6 342/1/6
f 341/2/6 327/2/6 342/2/6
f 328/2/6 329/2/6 343/2/6
f 342/1/6 328/1/6 343/1/6
f 329/1/6 330/1/6 344/1/6
f 343/2/6 329/2/6 344/2/6
f 330/2/6 331/2/6 345/2/6
f 344/1/6 330/1/6 345/1/6
f 331/1/6 332/1/6 346/1/6
f 345/2/6 331/2/6 346/2/6
f 332/2/6 333/2/6 347/2/6
f 346/1/6 332/1/6 347/1/6
f 333/1/6 338/1/6 348/1/6
f 347/2/6 333/2/6 348/2/6
f 348/1/6 338/1/6 349/1/6
f 345/2/6 346/2/6 350/2/6
f 340/2/6 341/2/6 350/2/6
f 348/2/6 349/2/6 350/2/6
f 347/2/6 348/2/6 350/2/6
f 346/2/6 347/2/6 350/2/6
f 341/2/6 342/2/6 350/2/6
f 344/2/6 345/2/6 350/2/6
f 343/2/6 344/2/6 350/2/6
f 342/2/6 343/2/6 350/2/6
f 350/2/6 349/2/6 351/2/6
f 352/1/6 353/1/6 356/1/6
f 356/1/6 353/1/6 357/1/6
f 354/1/6 355/1/6 358/1/6
f 358/1/6 355/1/6 359/1/6
f 360/1/6 361/1/6 364/1/6
f 364/1/6 361/1/6 365/1/6
f 362/1/6 363/1/6 366/1/6
f 366/1/6 363/1/6 367/1/6
